<svg width="40" height="40" viewBox="0 0 19 23" fill="none" xmlns="http://www.w3.org/2000/svg">
<path d="M6.30762 0.611328C5.04297 0.611328 3.89551 0.742187 3.09961 0.941406C2.69922 1.04102 2.38672 1.16162 2.21094 1.26611C2.14746 1.3042 2.12793 1.32373 2.1084 1.34375C2.12793 1.36377 2.14746 1.3833 2.21094 1.42139C2.38672 1.52588 2.69922 1.64648 3.09961 1.74609C3.89551 1.94531 5.04297 2.07617 6.30762 2.07617C7.57227 2.07617 8.71973 1.94531 9.51562 1.74609C9.91602 1.64648 10.2285 1.52588 10.4043 1.42139C10.4678 1.3833 10.4873 1.36377 10.5068 1.34375C10.4873 1.32373 10.4678 1.3042 10.4043 1.26611C10.2285 1.16162 9.91602 1.04102 9.51562 0.941406C8.71973 0.742187 7.57227 0.611328 6.30762 0.611328ZM2.05957 2.32666V4.2832C2.37695 4.44434 2.79199 4.60547 3.09961 4.68359C3.89551 4.88379 5.04297 5.01562 6.30762 5.01562C7.57227 5.01562 8.71973 4.88379 9.51562 4.68359C10.1016 4.54199 10.1699 4.52734 10.5557 4.2832V2.32666C10.3164 2.43213 10.043 2.52051 9.73047 2.59863C8.82715 2.82373 7.63086 2.95508 6.30762 2.95508C4.98438 2.95508 3.78809 2.82373 2.88477 2.59863C2.57227 2.52051 2.29883 2.43213 2.05957 2.32666ZM2.47949 5.42578C2.07422 5.56738 1.67383 5.82129 1.34668 6.14844C0.828125 6.66113 0.49707 7.34961 0.49707 7.98438V11.1094C0.49707 11.3535 0.604492 11.5635 0.880859 11.8027C1.15625 12.0371 1.60059 12.2666 2.14746 12.4521C3.25098 12.8184 4.7793 13.0137 6.30762 13.0137C7.83106 13.0137 9.36426 12.8184 10.4678 12.4521C11.0146 12.2666 11.459 12.0371 11.7324 11.8027C12.0107 11.5635 12.1182 11.3535 12.1182 11.1094V7.98438C12.1182 7.34961 11.7861 6.66113 11.2686 6.14844C10.9414 5.82129 10.5459 5.56738 10.1357 5.42578C10.0088 5.46484 9.87207 5.50391 9.73047 5.53809C8.82715 5.76269 7.63086 5.89453 6.30762 5.89453C4.98438 5.89453 3.78809 5.76269 2.88477 5.53809C2.74316 5.50391 2.60645 5.46484 2.47949 5.42578ZM0.49707 12.6182V15.7969C0.49707 16.041 0.604492 16.251 0.880859 16.4902C1.15625 16.7246 1.60059 16.9541 2.14746 17.1396C3.25098 17.5059 4.7793 17.7012 6.30762 17.7012C7.83106 17.7012 9.36426 17.5059 10.4678 17.1396C11.0146 16.9541 11.459 16.7246 11.7324 16.4902C12.0107 16.251 12.1182 16.041 12.1182 15.7969V12.6182C11.7373 12.8916 11.2734 13.1064 10.7412 13.2822C9.50098 13.6973 7.9043 13.8926 6.30762 13.8926C4.70606 13.8926 3.11426 13.6973 1.87402 13.2822C1.3418 13.1064 0.875488 12.8916 0.49707 12.6182ZM0.49707 17.3057V20.4844C0.49707 20.7285 0.604492 20.9385 0.880859 21.1777C1.15625 21.4121 1.60059 21.6416 2.14746 21.8271C3.25098 22.1934 4.7793 22.3887 6.30762 22.3887C7.16211 22.3887 8.02637 22.3252 8.80762 22.208C8.65137 21.9883 8.55371 21.7393 8.55371 21.4561C8.55371 20.8799 8.95898 20.4258 9.4668 20.1426C9.77441 19.9668 10.1406 19.8447 10.541 19.7715C10.6484 19.3369 11 18.9902 11.415 18.7559C11.625 18.6387 11.8643 18.541 12.1182 18.4678V17.3057C11.7373 17.5791 11.2734 17.7939 10.7412 17.9697C9.50098 18.3848 7.9043 18.5801 6.30762 18.5801C4.70606 18.5801 3.11426 18.3848 1.87402 17.9697C1.3418 17.7939 0.875488 17.5791 0.49707 17.3057ZM13.2852 19.1953C12.7041 19.1953 12.1816 19.332 11.8447 19.5225C11.7324 19.5859 11.6494 19.6494 11.5811 19.708C12.1963 19.7422 12.7627 19.8936 13.207 20.1426C13.5098 20.3135 13.7783 20.543 13.9395 20.8213C14.0859 20.4551 14.3984 20.1572 14.7695 19.9521C14.8672 19.8984 14.9697 19.8496 15.0771 19.8008C15.0039 19.7129 14.8916 19.6152 14.7256 19.5225C14.3887 19.332 13.8662 19.1953 13.2852 19.1953ZM16.6397 20.3916C16.0586 20.3916 15.5361 20.5283 15.1992 20.7188C14.8574 20.9092 14.7354 21.1143 14.7354 21.2656C14.7354 21.417 14.8574 21.6221 15.1992 21.8125C15.5361 22.0029 16.0586 22.1396 16.6397 22.1396C17.2207 22.1396 17.7432 22.0029 18.0801 21.8125C18.4219 21.6221 18.5439 21.417 18.5439 21.2656C18.5439 21.1143 18.4219 20.9092 18.0801 20.7188C17.7432 20.5283 17.2207 20.3916 16.6397 20.3916ZM11.3369 20.582C10.7559 20.582 10.2334 20.7188 9.89649 20.9092C9.55469 21.0996 9.43262 21.3047 9.43262 21.4561C9.43262 21.6074 9.55469 21.8125 9.89649 22.0029C10.2334 22.1934 10.7559 22.3301 11.3369 22.3301C11.918 22.3301 12.4404 22.1934 12.7773 22.0029C13.1191 21.8125 13.2412 21.6074 13.2412 21.4561C13.2412 21.3047 13.1191 21.0996 12.7773 20.9092C12.4404 20.7188 11.918 20.582 11.3369 20.582Z" fill="#008ac6"/>
</svg>
