<svg width="16" height="18" viewBox="0 0 16 18" fill="none" xmlns="http://www.w3.org/2000/svg">
<path d="M12.125 2.98438H3.875C3.73825 2.98438 3.6071 3.0387 3.5104 3.1354C3.4137 3.2321 3.35938 3.36325 3.35938 3.5V7.625C3.35938 7.76175 3.4137 7.8929 3.5104 7.9896C3.6071 8.0863 3.73825 8.14062 3.875 8.14062H12.125C12.2618 8.14062 12.3929 8.0863 12.4896 7.9896C12.5863 7.8929 12.6406 7.76175 12.6406 7.625V3.5C12.6406 3.36325 12.5863 3.2321 12.4896 3.1354C12.3929 3.0387 12.2618 2.98438 12.125 2.98438ZM11.6094 7.10938H4.39062V4.01562H11.6094V7.10938ZM14.1875 0.234375H1.8125C1.49341 0.234375 1.18739 0.361133 0.961762 0.586762C0.736133 0.812392 0.609375 1.11841 0.609375 1.4375V16.5625C0.609375 16.8816 0.736133 17.1876 0.961762 17.4132C1.18739 17.6389 1.49341 17.7656 1.8125 17.7656H14.1875C14.5066 17.7656 14.8126 17.6389 15.0382 17.4132C15.2639 17.1876 15.3906 16.8816 15.3906 16.5625V1.4375C15.3906 1.11841 15.2639 0.812392 15.0382 0.586762C14.8126 0.361133 14.5066 0.234375 14.1875 0.234375ZM14.3594 16.5625C14.3594 16.6081 14.3413 16.6518 14.309 16.684C14.2768 16.7163 14.2331 16.7344 14.1875 16.7344H1.8125C1.76692 16.7344 1.7232 16.7163 1.69097 16.684C1.65873 16.6518 1.64062 16.6081 1.64062 16.5625V1.4375C1.64062 1.39192 1.65873 1.3482 1.69097 1.31597C1.7232 1.28373 1.76692 1.26562 1.8125 1.26562H14.1875C14.2331 1.26562 14.2768 1.28373 14.309 1.31597C14.3413 1.3482 14.3594 1.39192 14.3594 1.4375V16.5625ZM5.42188 10.7188C5.42188 10.8887 5.37147 11.0549 5.27704 11.1962C5.18261 11.3375 5.0484 11.4477 4.89137 11.5127C4.73434 11.5778 4.56155 11.5948 4.39484 11.5616C4.22814 11.5285 4.07502 11.4466 3.95483 11.3264C3.83464 11.2062 3.7528 11.0531 3.71964 10.8864C3.68648 10.7197 3.7035 10.5469 3.76854 10.3899C3.83359 10.2329 3.94373 10.0986 4.08506 10.0042C4.22638 9.90978 4.39253 9.85938 4.5625 9.85938C4.79042 9.85938 5.00901 9.94991 5.17017 10.1111C5.33133 10.2722 5.42188 10.4908 5.42188 10.7188ZM8.85938 10.7188C8.85938 10.8887 8.80897 11.0549 8.71454 11.1962C8.62012 11.3375 8.4859 11.4477 8.32887 11.5127C8.17184 11.5778 7.99905 11.5948 7.83234 11.5616C7.66564 11.5285 7.51252 11.4466 7.39233 11.3264C7.27214 11.2062 7.1903 11.0531 7.15714 10.8864C7.12398 10.7197 7.141 10.5469 7.20604 10.3899C7.27109 10.2329 7.38123 10.0986 7.52256 10.0042C7.66388 9.90978 7.83003 9.85938 8 9.85938C8.22792 9.85938 8.44651 9.94991 8.60767 10.1111C8.76884 10.2722 8.85938 10.4908 8.85938 10.7188ZM12.2969 10.7188C12.2969 10.8887 12.2465 11.0549 12.152 11.1962C12.0576 11.3375 11.9234 11.4477 11.7664 11.5127C11.6093 11.5778 11.4365 11.5948 11.2698 11.5616C11.1031 11.5285 10.95 11.4466 10.8298 11.3264C10.7096 11.2062 10.6278 11.0531 10.5946 10.8864C10.5615 10.7197 10.5785 10.5469 10.6435 10.3899C10.7086 10.2329 10.8187 10.0986 10.9601 10.0042C11.1014 9.90978 11.2675 9.85938 11.4375 9.85938C11.6654 9.85938 11.884 9.94991 12.0452 10.1111C12.2063 10.2722 12.2969 10.4908 12.2969 10.7188ZM5.42188 14.1562C5.42188 14.3262 5.37147 14.4924 5.27704 14.6337C5.18261 14.775 5.0484 14.8852 4.89137 14.9502C4.73434 15.0153 4.56155 15.0323 4.39484 14.9991C4.22814 14.966 4.07502 14.8841 3.95483 14.7639C3.83464 14.6437 3.7528 14.4906 3.71964 14.3239C3.68648 14.1572 3.7035 13.9844 3.76854 13.8274C3.83359 13.6704 3.94373 13.5361 4.08506 13.4417C4.22638 13.3473 4.39253 13.2969 4.5625 13.2969C4.79042 13.2969 5.00901 13.3874 5.17017 13.5486C5.33133 13.7097 5.42188 13.9283 5.42188 14.1562ZM8.85938 14.1562C8.85938 14.3262 8.80897 14.4924 8.71454 14.6337C8.62012 14.775 8.4859 14.8852 8.32887 14.9502C8.17184 15.0153 7.99905 15.0323 7.83234 14.9991C7.66564 14.966 7.51252 14.8841 7.39233 14.7639C7.27214 14.6437 7.1903 14.4906 7.15714 14.3239C7.12398 14.1572 7.141 13.9844 7.20604 13.8274C7.27109 13.6704 7.38123 13.5361 7.52256 13.4417C7.66388 13.3473 7.83003 13.2969 8 13.2969C8.22792 13.2969 8.44651 13.3874 8.60767 13.5486C8.76884 13.7097 8.85938 13.9283 8.85938 14.1562ZM12.2969 14.1562C12.2969 14.3262 12.2465 14.4924 12.152 14.6337C12.0576 14.775 11.9234 14.8852 11.7664 14.9502C11.6093 15.0153 11.4365 15.0323 11.2698 14.9991C11.1031 14.966 10.95 14.8841 10.8298 14.7639C10.7096 14.6437 10.6278 14.4906 10.5946 14.3239C10.5615 14.1572 10.5785 13.9844 10.6435 13.8274C10.7086 13.6704 10.8187 13.5361 10.9601 13.4417C11.1014 13.3473 11.2675 13.2969 11.4375 13.2969C11.6654 13.2969 11.884 13.3874 12.0452 13.5486C12.2063 13.7097 12.2969 13.9283 12.2969 14.1562Z" fill="black"/>
</svg>
