<svg width="26" height="26" viewBox="0 0 26 26" fill="none" xmlns="http://www.w3.org/2000/svg">
<path d="M24.375 23.2375L22.1 20.9625C22.5063 20.3125 22.75 19.5 22.75 18.6875C22.75 16.4125 20.9625 14.625 18.6875 14.625C16.4125 14.625 14.625 16.4125 14.625 18.6875C14.625 20.9625 16.4125 22.75 18.6875 22.75C19.5 22.75 20.3125 22.5063 20.9625 22.1L23.2375 24.375L24.375 23.2375ZM16.25 18.6875C16.25 17.3062 17.3062 16.25 18.6875 16.25C20.0688 16.25 21.125 17.3062 21.125 18.6875C21.125 20.0688 20.0688 21.125 18.6875 21.125C17.3062 21.125 16.25 20.0688 16.25 18.6875ZM6.5 13H14.625V14.625H6.5V13ZM6.5 8.125H16.25V9.75H6.5V8.125Z" fill="black"/>
<path d="M11.375 22.5063L7.15 20.2312C4.7125 19.0125 3.25 16.4937 3.25 13.8125V3.25H19.5V12.1875H21.125V3.25C21.125 2.35625 20.3937 1.625 19.5 1.625H3.25C2.35625 1.625 1.625 2.35625 1.625 3.25V13.8125C1.625 17.1438 3.4125 20.15 6.3375 21.6938L11.375 24.375V22.5063Z" fill="black"/>
</svg>
