<svg xmlns="http://www.w3.org/2000/svg" xmlns:xlink="http://www.w3.org/1999/xlink" width="48" viewBox="0 0 36 36.000001" height="48" preserveAspectRatio="xMidYMid meet"><defs><clipPath id="204c5c19c2"><path d="M 0.488281 0 L 35.511719 0 L 35.511719 35.027344 L 0.488281 35.027344 Z M 0.488281 0 " clip-rule="nonzero"></path></clipPath></defs><g clip-path="url(#204c5c19c2)"><path fill="#ed4e2e" d="M 35.511719 17.511719 C 35.511719 18.085938 35.484375 18.660156 35.429688 19.230469 C 35.371094 19.800781 35.289062 20.367188 35.175781 20.929688 C 35.066406 21.492188 34.925781 22.046875 34.757812 22.597656 C 34.59375 23.144531 34.398438 23.6875 34.179688 24.214844 C 33.960938 24.746094 33.714844 25.261719 33.445312 25.769531 C 33.175781 26.273438 32.878906 26.765625 32.5625 27.242188 C 32.242188 27.71875 31.902344 28.179688 31.539062 28.625 C 31.175781 29.066406 30.789062 29.492188 30.382812 29.898438 C 29.976562 30.304688 29.554688 30.6875 29.109375 31.050781 C 28.667969 31.414062 28.207031 31.757812 27.730469 32.074219 C 27.253906 32.394531 26.761719 32.6875 26.253906 32.960938 C 25.75 33.230469 25.230469 33.472656 24.703125 33.695312 C 24.171875 33.914062 23.632812 34.105469 23.082031 34.273438 C 22.535156 34.4375 21.980469 34.578125 21.417969 34.691406 C 20.855469 34.800781 20.289062 34.886719 19.714844 34.941406 C 19.144531 35 18.574219 35.027344 18 35.027344 C 17.425781 35.027344 16.855469 35 16.285156 34.941406 C 15.710938 34.886719 15.144531 34.800781 14.582031 34.691406 C 14.019531 34.578125 13.464844 34.4375 12.917969 34.273438 C 12.367188 34.105469 11.828125 33.914062 11.296875 33.695312 C 10.769531 33.472656 10.25 33.230469 9.746094 32.960938 C 9.238281 32.6875 8.746094 32.394531 8.269531 32.074219 C 7.792969 31.757812 7.332031 31.414062 6.890625 31.050781 C 6.445312 30.6875 6.023438 30.304688 5.617188 29.898438 C 5.210938 29.492188 4.824219 29.066406 4.460938 28.625 C 4.097656 28.179688 3.757812 27.71875 3.4375 27.242188 C 3.121094 26.765625 2.824219 26.273438 2.554688 25.769531 C 2.285156 25.261719 2.039062 24.746094 1.820312 24.214844 C 1.601562 23.6875 1.40625 23.144531 1.242188 22.597656 C 1.074219 22.046875 0.933594 21.492188 0.824219 20.929688 C 0.710938 20.367188 0.628906 19.800781 0.570312 19.230469 C 0.515625 18.660156 0.488281 18.085938 0.488281 17.511719 C 0.488281 16.941406 0.515625 16.367188 0.570312 15.796875 C 0.628906 15.226562 0.710938 14.660156 0.824219 14.097656 C 0.933594 13.535156 1.074219 12.976562 1.242188 12.429688 C 1.40625 11.878906 1.601562 11.339844 1.820312 10.8125 C 2.039062 10.28125 2.285156 9.761719 2.554688 9.257812 C 2.824219 8.75 3.121094 8.261719 3.4375 7.785156 C 3.757812 7.304688 4.097656 6.847656 4.460938 6.402344 C 4.824219 5.960938 5.210938 5.535156 5.617188 5.128906 C 6.023438 4.722656 6.445312 4.339844 6.890625 3.976562 C 7.332031 3.613281 7.792969 3.269531 8.269531 2.953125 C 8.746094 2.632812 9.238281 2.339844 9.746094 2.066406 C 10.25 1.796875 10.769531 1.550781 11.296875 1.332031 C 11.828125 1.113281 12.367188 0.921875 12.917969 0.753906 C 13.464844 0.585938 14.019531 0.449219 14.582031 0.335938 C 15.144531 0.226562 15.710938 0.140625 16.285156 0.0859375 C 16.855469 0.0273438 17.425781 0 18 0 C 18.574219 0 19.144531 0.0273438 19.714844 0.0859375 C 20.289062 0.140625 20.855469 0.226562 21.417969 0.335938 C 21.980469 0.449219 22.535156 0.585938 23.082031 0.753906 C 23.632812 0.921875 24.171875 1.113281 24.703125 1.332031 C 25.230469 1.550781 25.75 1.796875 26.253906 2.066406 C 26.761719 2.339844 27.253906 2.632812 27.730469 2.953125 C 28.207031 3.269531 28.667969 3.613281 29.109375 3.976562 C 29.554688 4.339844 29.976562 4.722656 30.382812 5.128906 C 30.789062 5.535156 31.175781 5.960938 31.539062 6.402344 C 31.902344 6.847656 32.242188 7.304688 32.5625 7.785156 C 32.878906 8.261719 33.175781 8.75 33.445312 9.257812 C 33.714844 9.761719 33.960938 10.28125 34.179688 10.8125 C 34.398438 11.339844 34.59375 11.878906 34.757812 12.429688 C 34.925781 12.976562 35.066406 13.535156 35.175781 14.097656 C 35.289062 14.660156 35.371094 15.226562 35.429688 15.796875 C 35.484375 16.367188 35.511719 16.941406 35.511719 17.511719 Z M 35.511719 17.511719 " fill-opacity="1" fill-rule="nonzero"></path></g><path fill="#8c9ca9" d="M 34.523438 17.511719 C 34.523438 18.054688 34.5 18.59375 34.445312 19.132812 C 34.390625 19.671875 34.3125 20.207031 34.207031 20.738281 C 34.101562 21.269531 33.96875 21.792969 33.8125 22.308594 C 33.65625 22.828125 33.472656 23.335938 33.265625 23.835938 C 33.058594 24.335938 32.828125 24.824219 32.574219 25.304688 C 32.320312 25.78125 32.039062 26.246094 31.738281 26.695312 C 31.4375 27.144531 31.117188 27.578125 30.773438 27.996094 C 30.429688 28.414062 30.066406 28.816406 29.683594 29.199219 C 29.300781 29.582031 28.902344 29.945312 28.484375 30.289062 C 28.066406 30.628906 27.628906 30.953125 27.179688 31.253906 C 26.730469 31.554688 26.265625 31.832031 25.789062 32.085938 C 25.3125 32.34375 24.824219 32.574219 24.324219 32.78125 C 23.824219 32.988281 23.316406 33.167969 22.796875 33.328125 C 22.277344 33.484375 21.753906 33.613281 21.222656 33.722656 C 20.691406 33.828125 20.160156 33.90625 19.621094 33.957031 C 19.082031 34.011719 18.542969 34.039062 18 34.039062 C 17.457031 34.039062 16.917969 34.011719 16.378906 33.957031 C 15.839844 33.90625 15.308594 33.828125 14.777344 33.722656 C 14.246094 33.613281 13.722656 33.484375 13.203125 33.328125 C 12.683594 33.167969 12.175781 32.988281 11.675781 32.78125 C 11.175781 32.574219 10.6875 32.34375 10.210938 32.085938 C 9.734375 31.832031 9.269531 31.554688 8.820312 31.253906 C 8.371094 30.953125 7.933594 30.628906 7.515625 30.289062 C 7.097656 29.945312 6.699219 29.582031 6.316406 29.199219 C 5.933594 28.816406 5.570312 28.414062 5.226562 27.996094 C 4.882812 27.578125 4.5625 27.144531 4.261719 26.695312 C 3.960938 26.246094 3.679688 25.78125 3.425781 25.304688 C 3.171875 24.824219 2.941406 24.335938 2.734375 23.835938 C 2.527344 23.335938 2.34375 22.828125 2.1875 22.308594 C 2.03125 21.792969 1.898438 21.269531 1.792969 20.738281 C 1.6875 20.207031 1.609375 19.671875 1.554688 19.132812 C 1.5 18.59375 1.476562 18.054688 1.476562 17.511719 C 1.476562 16.972656 1.5 16.433594 1.554688 15.894531 C 1.609375 15.355469 1.6875 14.820312 1.792969 14.289062 C 1.898438 13.757812 2.03125 13.234375 2.1875 12.714844 C 2.34375 12.199219 2.527344 11.691406 2.734375 11.191406 C 2.941406 10.691406 3.171875 10.199219 3.425781 9.722656 C 3.679688 9.246094 3.960938 8.78125 4.261719 8.332031 C 4.5625 7.882812 4.882812 7.449219 5.226562 7.03125 C 5.570312 6.613281 5.933594 6.210938 6.316406 5.828125 C 6.699219 5.445312 7.097656 5.082031 7.515625 4.738281 C 7.933594 4.394531 8.371094 4.074219 8.820312 3.773438 C 9.269531 3.472656 9.734375 3.195312 10.210938 2.941406 C 10.6875 2.683594 11.175781 2.453125 11.675781 2.246094 C 12.175781 2.039062 12.683594 1.855469 13.203125 1.699219 C 13.722656 1.542969 14.246094 1.410156 14.777344 1.304688 C 15.308594 1.199219 15.839844 1.121094 16.378906 1.066406 C 16.917969 1.015625 17.457031 0.988281 18 0.988281 C 18.542969 0.988281 19.082031 1.015625 19.621094 1.066406 C 20.160156 1.121094 20.691406 1.199219 21.222656 1.304688 C 21.753906 1.410156 22.277344 1.542969 22.796875 1.699219 C 23.316406 1.855469 23.824219 2.039062 24.324219 2.246094 C 24.824219 2.453125 25.3125 2.683594 25.789062 2.941406 C 26.265625 3.195312 26.730469 3.472656 27.179688 3.773438 C 27.628906 4.074219 28.066406 4.394531 28.484375 4.738281 C 28.902344 5.082031 29.300781 5.445312 29.683594 5.828125 C 30.066406 6.210938 30.429688 6.613281 30.773438 7.03125 C 31.117188 7.449219 31.4375 7.882812 31.738281 8.332031 C 32.039062 8.78125 32.320312 9.246094 32.574219 9.722656 C 32.828125 10.199219 33.058594 10.691406 33.265625 11.191406 C 33.472656 11.691406 33.65625 12.199219 33.8125 12.714844 C 33.96875 13.234375 34.101562 13.757812 34.207031 14.289062 C 34.3125 14.820312 34.390625 15.355469 34.445312 15.894531 C 34.5 16.433594 34.523438 16.972656 34.523438 17.511719 Z M 34.523438 17.511719 " fill-opacity="1" fill-rule="nonzero"></path><path fill="#ffffff" d="M 34.03125 17.511719 C 34.03125 18.039062 34.003906 18.5625 33.953125 19.085938 C 33.902344 19.605469 33.824219 20.125 33.722656 20.640625 C 33.621094 21.15625 33.492188 21.664062 33.339844 22.167969 C 33.1875 22.667969 33.011719 23.164062 32.808594 23.648438 C 32.609375 24.132812 32.386719 24.605469 32.136719 25.070312 C 31.890625 25.53125 31.621094 25.984375 31.328125 26.417969 C 31.035156 26.855469 30.726562 27.277344 30.390625 27.683594 C 30.058594 28.089844 29.707031 28.476562 29.335938 28.847656 C 28.964844 29.21875 28.574219 29.570312 28.167969 29.90625 C 27.765625 30.238281 27.34375 30.550781 26.90625 30.84375 C 26.46875 31.132812 26.019531 31.402344 25.558594 31.652344 C 25.09375 31.898438 24.621094 32.121094 24.132812 32.324219 C 23.648438 32.523438 23.15625 32.703125 22.652344 32.855469 C 22.152344 33.007812 21.640625 33.132812 21.128906 33.234375 C 20.613281 33.339844 20.09375 33.414062 19.570312 33.464844 C 19.046875 33.519531 18.523438 33.542969 18 33.542969 C 17.476562 33.542969 16.953125 33.519531 16.429688 33.464844 C 15.90625 33.414062 15.386719 33.339844 14.871094 33.234375 C 14.359375 33.132812 13.847656 33.007812 13.347656 32.855469 C 12.84375 32.703125 12.351562 32.523438 11.867188 32.324219 C 11.378906 32.121094 10.90625 31.898438 10.441406 31.652344 C 9.980469 31.402344 9.53125 31.132812 9.09375 30.84375 C 8.65625 30.550781 8.234375 30.238281 7.832031 29.90625 C 7.425781 29.570312 7.035156 29.21875 6.664062 28.847656 C 6.292969 28.476562 5.941406 28.089844 5.609375 27.683594 C 5.273438 27.277344 4.964844 26.855469 4.671875 26.417969 C 4.378906 25.984375 4.109375 25.53125 3.863281 25.070312 C 3.613281 24.605469 3.390625 24.132812 3.191406 23.648438 C 2.988281 23.164062 2.8125 22.667969 2.660156 22.167969 C 2.507812 21.664062 2.378906 21.15625 2.277344 20.640625 C 2.175781 20.125 2.097656 19.605469 2.046875 19.085938 C 1.996094 18.5625 1.96875 18.039062 1.96875 17.511719 C 1.96875 16.988281 1.996094 16.464844 2.046875 15.941406 C 2.097656 15.417969 2.175781 14.902344 2.277344 14.386719 C 2.378906 13.871094 2.507812 13.363281 2.660156 12.859375 C 2.8125 12.359375 2.988281 11.863281 3.191406 11.378906 C 3.390625 10.894531 3.613281 10.417969 3.863281 9.957031 C 4.109375 9.492188 4.378906 9.042969 4.671875 8.609375 C 4.964844 8.171875 5.273438 7.75 5.609375 7.34375 C 5.941406 6.9375 6.292969 6.550781 6.664062 6.179688 C 7.035156 5.808594 7.425781 5.453125 7.832031 5.121094 C 8.234375 4.789062 8.65625 4.476562 9.09375 4.183594 C 9.53125 3.894531 9.980469 3.625 10.441406 3.375 C 10.90625 3.128906 11.378906 2.90625 11.867188 2.703125 C 12.351562 2.503906 12.84375 2.324219 13.347656 2.171875 C 13.847656 2.019531 14.359375 1.894531 14.871094 1.792969 C 15.386719 1.6875 15.90625 1.613281 16.429688 1.558594 C 16.953125 1.507812 17.476562 1.484375 18 1.484375 C 18.523438 1.484375 19.046875 1.507812 19.570312 1.558594 C 20.09375 1.613281 20.613281 1.6875 21.128906 1.792969 C 21.640625 1.894531 22.152344 2.019531 22.652344 2.171875 C 23.15625 2.324219 23.648438 2.503906 24.132812 2.703125 C 24.621094 2.90625 25.09375 3.128906 25.558594 3.375 C 26.019531 3.625 26.46875 3.894531 26.90625 4.183594 C 27.34375 4.476562 27.765625 4.789062 28.167969 5.121094 C 28.574219 5.453125 28.964844 5.808594 29.335938 6.179688 C 29.707031 6.550781 30.058594 6.9375 30.390625 7.34375 C 30.726562 7.75 31.035156 8.171875 31.328125 8.609375 C 31.621094 9.042969 31.890625 9.492188 32.136719 9.957031 C 32.386719 10.417969 32.609375 10.894531 32.808594 11.378906 C 33.011719 11.863281 33.1875 12.359375 33.339844 12.859375 C 33.492188 13.363281 33.621094 13.871094 33.722656 14.386719 C 33.824219 14.902344 33.902344 15.417969 33.953125 15.941406 C 34.003906 16.464844 34.03125 16.988281 34.03125 17.511719 Z M 34.03125 17.511719 " fill-opacity="1" fill-rule="nonzero"></path><path fill="#dfe0e2" d="M 26.378906 28.054688 L 9.609375 28.054688 C 9.335938 28.054688 9.113281 27.832031 9.113281 27.5625 L 9.113281 7.453125 C 9.113281 7.179688 9.335938 6.957031 9.609375 6.957031 L 26.378906 6.957031 C 26.652344 6.957031 26.875 7.179688 26.875 7.453125 L 26.875 27.5625 C 26.875 27.832031 26.652344 28.054688 26.378906 28.054688 Z M 26.378906 28.054688 " fill-opacity="1" fill-rule="nonzero"></path><path fill="#ed4e2e" d="M 17.816406 18.527344 L 16.566406 20.207031 L 14.652344 20.851562 C 14.613281 20.863281 14.5625 20.875 14.539062 20.898438 C 14.429688 20.972656 14.402344 21.109375 14.464844 21.222656 L 15.6875 22.925781 L 15.699219 24.953125 C 15.699219 24.992188 15.699219 25.039062 15.714844 25.078125 C 15.75 25.199219 15.886719 25.273438 16.023438 25.238281 L 18 24.609375 L 19.953125 25.226562 C 19.976562 25.238281 20.015625 25.25 20.039062 25.25 C 20.175781 25.25 20.273438 25.152344 20.285156 25.027344 L 20.3125 22.925781 L 21.484375 21.269531 C 21.511719 21.246094 21.535156 21.210938 21.546875 21.171875 C 21.585938 21.0625 21.535156 20.9375 21.421875 20.875 L 19.421875 20.207031 L 18.222656 18.578125 C 18.199219 18.550781 18.171875 18.515625 18.148438 18.488281 C 18.035156 18.414062 17.902344 18.429688 17.816406 18.527344 Z M 17.816406 18.527344 " fill-opacity="1" fill-rule="nonzero"></path><path fill="#8c9ca9" d="M 12.167969 9.777344 C 12.03125 9.777344 11.917969 9.886719 11.917969 10.023438 C 11.917969 10.160156 12.03125 10.269531 12.167969 10.269531 L 23.832031 10.269531 C 23.96875 10.269531 24.082031 10.160156 24.082031 10.023438 C 24.082031 9.886719 23.96875 9.777344 23.832031 9.777344 Z M 12.167969 9.777344 " fill-opacity="1" fill-rule="nonzero"></path><path fill="#8c9ca9" d="M 12.167969 16.152344 C 12.03125 16.152344 11.917969 16.265625 11.917969 16.402344 C 11.917969 16.535156 12.03125 16.648438 12.167969 16.648438 L 23.832031 16.648438 C 23.96875 16.648438 24.082031 16.535156 24.082031 16.402344 C 24.082031 16.265625 23.96875 16.152344 23.832031 16.152344 Z M 12.167969 16.152344 " fill-opacity="1" fill-rule="nonzero"></path><path fill="#8c9ca9" d="M 12.167969 12.964844 C 12.03125 12.964844 11.917969 13.078125 11.917969 13.210938 C 11.917969 13.347656 12.03125 13.460938 12.167969 13.460938 L 23.832031 13.460938 C 23.96875 13.460938 24.082031 13.347656 24.082031 13.210938 C 24.082031 13.078125 23.96875 12.964844 23.832031 12.964844 Z M 12.167969 12.964844 " fill-opacity="1" fill-rule="nonzero"></path></svg>