<svg xmlns="http://www.w3.org/2000/svg" xmlns:xlink="http://www.w3.org/1999/xlink" width="48" viewBox="0 0 36 36.000001" height="48" preserveAspectRatio="xMidYMid meet"><defs><clipPath id="dd6d59e16e"><path d="M 1.449219 4 L 16 4 L 16 16 L 1.449219 16 Z M 1.449219 4 " clip-rule="nonzero"></path></clipPath><clipPath id="327f83c536"><path d="M 1.449219 12 L 16 12 L 16 14 L 1.449219 14 Z M 1.449219 12 " clip-rule="nonzero"></path></clipPath><clipPath id="6f8ab4754f"><path d="M 20 22 L 34.289062 22 L 34.289062 33 L 20 33 Z M 20 22 " clip-rule="nonzero"></path></clipPath><clipPath id="504243098a"><path d="M 20 29 L 34.289062 29 L 34.289062 32 L 20 32 Z M 20 29 " clip-rule="nonzero"></path></clipPath><clipPath id="8f6fd756f5"><path d="M 25 32 L 30 32 L 30 35.027344 L 25 35.027344 Z M 25 32 " clip-rule="nonzero"></path></clipPath><clipPath id="66760dbb8a"><path d="M 23 34 L 32 34 L 32 35.027344 L 23 35.027344 Z M 23 34 " clip-rule="nonzero"></path></clipPath></defs><g clip-path="url(#dd6d59e16e)"><path fill="#ffbd59" d="M 14.214844 15.46875 L 2.964844 15.46875 C 2.207031 15.46875 1.59375 14.855469 1.59375 14.097656 L 1.59375 6.035156 C 1.59375 5.28125 2.207031 4.667969 2.964844 4.667969 L 5.152344 4.667969 C 5.703125 4.667969 5.703125 5.484375 5.152344 5.484375 L 2.964844 5.484375 C 2.65625 5.484375 2.410156 5.730469 2.410156 6.035156 L 2.410156 14.097656 C 2.410156 14.402344 2.65625 14.648438 2.964844 14.648438 L 14.214844 14.648438 C 14.5 14.648438 14.746094 14.402344 14.746094 14.097656 L 14.746094 6.035156 C 14.746094 5.730469 14.5 5.484375 14.214844 5.484375 L 12.003906 5.484375 C 11.453125 5.484375 11.453125 4.667969 12.003906 4.667969 L 14.214844 4.667969 C 14.953125 4.667969 15.566406 5.28125 15.566406 6.035156 L 15.566406 14.097656 C 15.566406 14.855469 14.953125 15.46875 14.214844 15.46875 Z M 14.214844 15.46875 " fill-opacity="1" fill-rule="evenodd"></path></g><g clip-path="url(#327f83c536)"><path fill="#ffbd59" d="M 9.265625 13.851562 L 2.003906 13.851562 C 1.449219 13.851562 1.449219 13.035156 2.003906 13.035156 L 9.101562 13.035156 C 9.265625 12.972656 9.816406 12.175781 10.183594 12.175781 L 15.15625 12.175781 C 15.707031 12.175781 15.707031 12.992188 15.15625 12.992188 L 10.328125 12.992188 C 10.164062 13.054688 9.613281 13.851562 9.265625 13.851562 Z M 9.265625 13.851562 " fill-opacity="1" fill-rule="evenodd"></path></g><path fill="#ffbd59" d="M 10.429688 17.59375 C 10.207031 17.59375 10.019531 17.410156 10.019531 17.1875 L 10.019531 15.058594 C 10.019531 14.507812 10.839844 14.507812 10.839844 15.058594 L 10.839844 17.1875 C 10.839844 17.410156 10.675781 17.59375 10.429688 17.59375 Z M 6.726562 17.59375 C 6.480469 17.59375 6.320312 17.410156 6.320312 17.1875 L 6.320312 15.058594 C 6.320312 14.507812 7.136719 14.507812 7.136719 15.058594 L 7.136719 17.1875 C 7.136719 17.410156 6.953125 17.59375 6.726562 17.59375 Z M 6.726562 17.59375 " fill-opacity="1" fill-rule="evenodd"></path><path fill="#ffbd59" d="M 12.496094 17.59375 L 4.660156 17.59375 C 4.128906 17.59375 4.128906 16.777344 4.660156 16.777344 L 12.496094 16.777344 C 13.027344 16.777344 13.027344 17.59375 12.496094 17.59375 Z M 12.496094 17.59375 " fill-opacity="1" fill-rule="evenodd"></path><path fill="#ffbd59" d="M 11.679688 10.230469 L 5.480469 10.230469 C 5.070312 10.230469 4.742188 9.902344 4.742188 9.496094 L 4.742188 0.839844 C 4.742188 0.429688 5.070312 0.105469 5.480469 0.105469 L 9.753906 0.105469 C 9.878906 0.105469 9.980469 0.144531 10.0625 0.226562 L 12.292969 2.457031 C 12.355469 2.539062 12.414062 2.640625 12.414062 2.742188 L 12.414062 9.496094 C 12.414062 9.902344 12.085938 10.230469 11.679688 10.230469 Z M 5.5625 9.414062 L 11.597656 9.414062 L 11.597656 2.925781 L 9.589844 0.921875 L 5.5625 0.921875 Z M 5.5625 9.414062 " fill-opacity="1" fill-rule="evenodd"></path><path fill="#ffbd59" d="M 9.980469 3.5 C 9.40625 3.5 8.9375 2.949219 9.019531 2.394531 L 9.367188 0.453125 C 9.40625 0.105469 9.816406 0.00390625 10.0625 0.226562 L 12.292969 2.457031 C 12.515625 2.703125 12.394531 3.089844 12.066406 3.152344 Z M 10.042969 1.371094 L 9.835938 2.539062 L 9.980469 2.683594 L 11.148438 2.476562 Z M 10.042969 1.371094 " fill-opacity="1" fill-rule="evenodd"></path><path fill="#ffbd59" d="M 26.980469 16.285156 C 26.859375 16.285156 26.734375 16.226562 26.652344 16.121094 L 23.789062 12.523438 C 23.585938 12.257812 23.769531 11.867188 24.117188 11.867188 L 25.160156 11.867188 L 25.160156 10.128906 L 22.132812 10.128906 L 22.132812 11.171875 C 22.132812 11.519531 21.742188 11.703125 21.476562 11.5 L 17.855469 8.636719 C 17.652344 8.472656 17.652344 8.164062 17.855469 8 L 21.476562 5.136719 C 21.742188 4.910156 22.132812 5.097656 22.132812 5.445312 L 22.132812 6.507812 L 28.371094 6.507812 C 28.597656 6.507812 28.78125 6.691406 28.78125 6.917969 L 28.78125 11.867188 L 29.84375 11.867188 C 30.191406 11.867188 30.375 12.257812 30.152344 12.523438 L 27.289062 16.121094 C 27.226562 16.226562 27.101562 16.285156 26.980469 16.285156 Z M 24.957031 12.6875 L 26.980469 15.222656 L 28.984375 12.6875 C 28.578125 12.6875 27.960938 12.789062 27.960938 12.277344 L 27.960938 7.324219 L 21.722656 7.324219 C 21.210938 7.324219 21.3125 6.710938 21.3125 6.304688 L 18.777344 8.308594 L 21.3125 10.332031 C 21.3125 9.921875 21.210938 9.308594 21.722656 9.308594 L 25.570312 9.308594 C 25.792969 9.308594 25.976562 9.496094 25.976562 9.71875 L 25.976562 12.277344 C 25.976562 12.789062 25.363281 12.6875 24.957031 12.6875 Z M 24.957031 12.6875 " fill-opacity="1" fill-rule="evenodd"></path><path fill="#ffbd59" d="M 13.96875 30.15625 C 13.417969 30.15625 13.558594 29.378906 13.558594 28.683594 L 7.320312 28.683594 C 7.097656 28.683594 6.910156 28.5 6.910156 28.273438 L 6.910156 23.324219 L 5.867188 23.324219 C 5.519531 23.324219 5.335938 22.933594 5.542969 22.667969 L 8.40625 19.066406 C 8.570312 18.863281 8.894531 18.863281 9.039062 19.066406 L 11.902344 22.667969 C 12.109375 22.933594 11.945312 23.324219 11.574219 23.324219 L 10.53125 23.324219 L 10.53125 25.0625 L 13.558594 25.0625 L 13.558594 24.019531 C 13.558594 23.671875 13.96875 23.488281 14.234375 23.691406 L 17.835938 26.554688 C 18.039062 26.71875 18.039062 27.027344 17.835938 27.191406 L 14.234375 30.054688 C 14.152344 30.117188 14.070312 30.15625 13.96875 30.15625 Z M 7.730469 27.863281 L 13.96875 27.863281 C 14.480469 27.863281 14.378906 28.480469 14.378906 28.886719 L 16.914062 26.882812 L 14.378906 24.859375 C 14.378906 25.265625 14.480469 25.878906 13.96875 25.878906 L 10.125 25.878906 C 9.898438 25.878906 9.714844 25.695312 9.714844 25.472656 L 9.714844 22.914062 C 9.714844 22.402344 10.328125 22.503906 10.738281 22.503906 L 8.710938 19.96875 L 6.707031 22.503906 C 7.117188 22.503906 7.730469 22.402344 7.730469 22.914062 Z M 7.730469 27.863281 " fill-opacity="1" fill-rule="evenodd"></path><g clip-path="url(#6f8ab4754f)"><path fill="#ffbd59" d="M 33.054688 32.898438 L 21.804688 32.898438 C 21.046875 32.898438 20.433594 32.285156 20.433594 31.527344 L 20.433594 23.464844 C 20.433594 22.710938 21.046875 22.097656 21.804688 22.097656 L 24.015625 22.097656 C 24.546875 22.097656 24.546875 22.914062 24.015625 22.914062 L 21.804688 22.914062 C 21.496094 22.914062 21.253906 23.160156 21.253906 23.464844 L 21.253906 31.527344 C 21.253906 31.832031 21.496094 32.078125 21.804688 32.078125 L 33.054688 32.078125 C 33.363281 32.078125 33.609375 31.832031 33.609375 31.527344 L 33.609375 23.464844 C 33.609375 23.160156 33.363281 22.914062 33.054688 22.914062 L 30.847656 22.914062 C 30.316406 22.914062 30.316406 22.097656 30.847656 22.097656 L 33.054688 22.097656 C 33.8125 22.097656 34.425781 22.710938 34.425781 23.464844 L 34.425781 31.527344 C 34.425781 32.285156 33.8125 32.898438 33.054688 32.898438 Z M 33.054688 32.898438 " fill-opacity="1" fill-rule="evenodd"></path></g><g clip-path="url(#504243098a)"><path fill="#ffbd59" d="M 28.105469 31.28125 L 20.84375 31.28125 C 20.3125 31.28125 20.3125 30.464844 20.84375 30.464844 L 27.941406 30.464844 C 28.125 30.402344 28.679688 29.605469 29.027344 29.605469 L 34.019531 29.605469 C 34.550781 29.605469 34.550781 30.421875 34.019531 30.421875 L 29.191406 30.421875 C 29.027344 30.484375 28.472656 31.28125 28.105469 31.28125 Z M 28.105469 31.28125 " fill-opacity="1" fill-rule="evenodd"></path></g><g clip-path="url(#8f6fd756f5)"><path fill="#ffbd59" d="M 29.292969 35.023438 C 29.066406 35.023438 28.882812 34.839844 28.882812 34.617188 L 28.882812 32.488281 C 28.882812 31.9375 29.703125 31.9375 29.703125 32.488281 L 29.703125 34.617188 C 29.703125 34.839844 29.515625 35.023438 29.292969 35.023438 Z M 25.570312 35.023438 C 25.34375 35.023438 25.160156 34.839844 25.160156 34.617188 L 25.160156 32.488281 C 25.160156 31.9375 25.976562 31.9375 25.976562 32.488281 L 25.976562 34.617188 C 25.976562 34.839844 25.792969 35.023438 25.570312 35.023438 Z M 25.570312 35.023438 " fill-opacity="1" fill-rule="evenodd"></path></g><g clip-path="url(#66760dbb8a)"><path fill="#ffbd59" d="M 31.339844 35.023438 L 23.523438 35.023438 C 22.992188 35.023438 22.992188 34.207031 23.523438 34.207031 L 31.339844 34.207031 C 31.890625 34.207031 31.890625 35.023438 31.339844 35.023438 Z M 31.339844 35.023438 " fill-opacity="1" fill-rule="evenodd"></path></g><path fill="#ffbd59" d="M 30.539062 27.660156 L 24.339844 27.660156 C 23.933594 27.660156 23.605469 27.332031 23.605469 26.925781 L 23.605469 18.269531 C 23.605469 17.859375 23.933594 17.535156 24.339844 17.535156 L 28.617188 17.535156 C 28.71875 17.535156 28.820312 17.574219 28.902344 17.65625 L 31.132812 19.886719 C 31.214844 19.96875 31.257812 20.070312 31.257812 20.171875 L 31.257812 26.925781 C 31.257812 27.332031 30.929688 27.660156 30.539062 27.660156 Z M 24.421875 26.84375 L 30.4375 26.84375 L 30.4375 20.335938 L 28.453125 18.351562 L 24.421875 18.351562 Z M 24.421875 26.84375 " fill-opacity="1" fill-rule="evenodd"></path><path fill="#ffbd59" d="M 28.820312 20.929688 C 28.269531 20.929688 27.777344 20.378906 27.878906 19.824219 L 28.207031 17.882812 C 28.269531 17.554688 28.679688 17.433594 28.902344 17.65625 L 31.152344 19.886719 C 31.378906 20.132812 31.257812 20.519531 30.929688 20.582031 Z M 28.882812 18.78125 L 28.679688 19.96875 L 28.820312 20.113281 L 30.007812 19.90625 Z M 28.882812 18.78125 " fill-opacity="1" fill-rule="evenodd"></path></svg>