<svg xmlns="http://www.w3.org/2000/svg" xmlns:xlink="http://www.w3.org/1999/xlink" width="48" viewBox="0 0 36 36.000001" height="48" preserveAspectRatio="xMidYMid meet"><defs><clipPath id="69794d2fed"><path d="M 0.488281 0.546875 L 14 0.546875 L 14 21 L 0.488281 21 Z M 0.488281 0.546875 " clip-rule="nonzero"></path></clipPath><clipPath id="f3efbdb07a"><path d="M 22 14 L 35.511719 14 L 35.511719 34.84375 L 22 34.84375 Z M 22 14 " clip-rule="nonzero"></path></clipPath></defs><path fill="#cb6ce6" d="M 16.960938 4.589844 L 28.148438 4.589844 C 28.554688 4.589844 28.882812 4.917969 28.882812 5.324219 L 28.882812 9.15625 L 26.644531 9.15625 C 26.273438 9.15625 26.066406 9.574219 26.285156 9.867188 L 29.214844 13.785156 C 29.394531 14.019531 29.746094 14.019531 29.929688 13.785156 L 32.855469 9.867188 C 33.074219 9.574219 32.867188 9.15625 32.496094 9.15625 L 30.535156 9.15625 L 30.535156 5.324219 C 30.535156 4.007812 29.464844 2.9375 28.148438 2.9375 L 16.960938 2.9375 C 16.503906 2.9375 16.132812 3.308594 16.132812 3.761719 C 16.132812 4.21875 16.503906 4.589844 16.960938 4.589844 Z M 16.960938 4.589844 " fill-opacity="1" fill-rule="nonzero"></path><path fill="#cb6ce6" d="M 19.292969 32.027344 L 8.101562 32.027344 C 7.699219 32.027344 7.367188 31.699219 7.367188 31.292969 L 7.367188 27.460938 L 9.609375 27.460938 C 9.976562 27.460938 10.1875 27.042969 9.964844 26.75 L 7.039062 22.832031 C 6.855469 22.597656 6.503906 22.597656 6.324219 22.832031 L 3.394531 26.75 C 3.175781 27.042969 3.386719 27.460938 3.753906 27.460938 L 5.71875 27.460938 L 5.71875 31.292969 C 5.71875 32.609375 6.789062 33.679688 8.101562 33.679688 L 19.292969 33.679688 C 19.75 33.679688 20.117188 33.308594 20.117188 32.851562 C 20.117188 32.398438 19.746094 32.027344 19.292969 32.027344 Z M 19.292969 32.027344 " fill-opacity="1" fill-rule="nonzero"></path><g clip-path="url(#69794d2fed)"><path fill="#cb6ce6" d="M 13.039062 18.851562 L 13.039062 14.957031 C 12.90625 14.984375 12.769531 15.015625 12.640625 15.042969 C 12.4375 15.089844 12.238281 15.132812 12.035156 15.175781 L 12.035156 17.902344 L 1.574219 17.902344 L 1.574219 2.277344 L 12.035156 2.277344 L 12.035156 5.816406 C 12.078125 5.8125 12.128906 5.800781 12.171875 5.789062 C 12.457031 5.730469 12.746094 5.664062 13.039062 5.601562 L 13.039062 1.992188 C 13.039062 1.1875 12.390625 0.53125 11.585938 0.53125 L 2.027344 0.53125 C 1.226562 0.53125 0.570312 1.1875 0.570312 1.992188 L 0.570312 18.851562 C 0.570312 19.65625 1.226562 20.304688 2.027344 20.304688 L 11.585938 20.304688 C 12.390625 20.304688 13.039062 19.65625 13.039062 18.851562 Z M 5.730469 1.152344 L 7.875 1.152344 C 8.046875 1.152344 8.183594 1.285156 8.183594 1.449219 C 8.183594 1.621094 8.046875 1.757812 7.875 1.757812 L 5.730469 1.757812 C 5.5625 1.757812 5.4375 1.621094 5.4375 1.449219 C 5.4375 1.285156 5.5625 1.152344 5.730469 1.152344 Z M 7.96875 19.328125 C 7.960938 19.363281 7.925781 19.390625 7.886719 19.390625 L 5.71875 19.390625 C 5.683594 19.390625 5.648438 19.363281 5.632812 19.328125 L 5.441406 18.664062 C 5.414062 18.601562 5.464844 18.546875 5.519531 18.546875 L 8.085938 18.546875 C 8.152344 18.546875 8.195312 18.601562 8.171875 18.664062 Z M 7.96875 19.328125 " fill-opacity="1" fill-rule="nonzero"></path></g><path fill="#cb6ce6" d="M 18.0625 7.152344 C 14.292969 6.308594 10.523438 8.792969 6.75 7.949219 C 6.695312 8.199219 6.484375 8.363281 6.214844 8.335938 C 6.214844 9.894531 6.214844 11.457031 6.214844 13.015625 C 6.484375 13.152344 6.695312 13.414062 6.75 13.695312 C 10.523438 14.539062 14.292969 12.054688 18.0625 12.898438 C 18.117188 12.644531 18.332031 12.476562 18.59375 12.503906 C 18.59375 10.945312 18.59375 9.386719 18.59375 7.824219 C 18.332031 7.6875 18.117188 7.429688 18.0625 7.152344 Z M 9.835938 11.253906 C 9.644531 11.28125 9.488281 11.136719 9.488281 10.945312 C 9.488281 10.753906 9.648438 10.578125 9.835938 10.554688 C 10.03125 10.53125 10.1875 10.664062 10.1875 10.855469 C 10.1875 11.046875 10.03125 11.230469 9.835938 11.253906 Z M 12.40625 12.554688 C 11.59375 12.734375 10.941406 11.90625 10.941406 10.726562 C 10.941406 9.554688 11.59375 8.476562 12.40625 8.296875 C 13.214844 8.117188 13.867188 8.941406 13.867188 10.121094 C 13.867188 11.296875 13.214844 12.375 12.40625 12.554688 Z M 14.972656 10.292969 C 14.78125 10.320312 14.621094 10.183594 14.621094 9.992188 C 14.621094 9.800781 14.78125 9.617188 14.972656 9.59375 C 15.164062 9.570312 15.320312 9.710938 15.320312 9.90625 C 15.320312 10.097656 15.164062 10.269531 14.972656 10.292969 Z M 14.972656 10.292969 " fill-opacity="1" fill-rule="nonzero"></path><path fill="#cb6ce6" d="M 19.285156 13.5 C 19.285156 11.449219 19.285156 9.394531 19.285156 7.34375 C 19.285156 7.082031 19.066406 6.765625 18.804688 6.671875 C 14.539062 5.195312 10.273438 8.53125 6.007812 7.046875 C 5.746094 6.957031 5.53125 7.078125 5.53125 7.34375 C 5.53125 9.394531 5.53125 11.449219 5.53125 13.5 C 5.53125 13.761719 5.746094 14.070312 6.007812 14.160156 C 10.273438 15.644531 14.539062 12.308594 18.804688 13.789062 C 19.066406 13.878906 19.285156 13.761719 19.285156 13.5 Z M 18.320312 13.09375 C 18.320312 13.171875 18.261719 13.21875 18.191406 13.203125 C 14.335938 12.265625 10.480469 14.878906 6.625 13.9375 C 6.546875 13.921875 6.488281 13.839844 6.488281 13.761719 C 6.488281 13.539062 6.300781 13.308594 6.078125 13.234375 C 6 13.210938 5.941406 13.121094 5.941406 13.042969 C 5.941406 11.402344 5.941406 9.761719 5.941406 8.121094 C 5.941406 8.046875 6 8.007812 6.078125 8.035156 C 6.300781 8.109375 6.488281 7.972656 6.488281 7.742188 C 6.488281 7.671875 6.550781 7.628906 6.625 7.644531 C 10.480469 8.585938 14.335938 5.972656 18.191406 6.910156 C 18.261719 6.925781 18.320312 7.003906 18.320312 7.074219 C 18.320312 7.304688 18.507812 7.539062 18.738281 7.613281 C 18.808594 7.636719 18.867188 7.71875 18.867188 7.792969 C 18.867188 9.433594 18.867188 11.074219 18.867188 12.714844 C 18.867188 12.792969 18.808594 12.835938 18.738281 12.8125 C 18.507812 12.734375 18.320312 12.871094 18.320312 13.09375 Z M 18.320312 13.09375 " fill-opacity="1" fill-rule="nonzero"></path><path fill="#cb6ce6" d="M 12.566406 10.152344 C 12.5625 10.152344 12.558594 10.15625 12.554688 10.15625 C 12.554688 9.933594 12.554688 9.710938 12.554688 9.488281 C 12.738281 9.472656 12.90625 9.507812 13.0625 9.585938 C 13.140625 9.460938 13.214844 9.332031 13.292969 9.210938 C 13.058594 9.097656 12.8125 9.0625 12.554688 9.097656 C 12.554688 9.039062 12.554688 8.980469 12.554688 8.917969 C 12.476562 8.933594 12.402344 8.953125 12.324219 8.96875 C 12.324219 9.027344 12.324219 9.085938 12.324219 9.144531 C 12.097656 9.207031 11.910156 9.320312 11.765625 9.480469 C 11.621094 9.640625 11.550781 9.824219 11.550781 10.027344 C 11.550781 10.230469 11.613281 10.375 11.738281 10.453125 C 11.863281 10.53125 12.058594 10.574219 12.324219 10.578125 C 12.324219 10.808594 12.324219 11.039062 12.324219 11.269531 C 12.113281 11.28125 11.910156 11.222656 11.710938 11.089844 C 11.625 11.210938 11.539062 11.332031 11.453125 11.453125 C 11.710938 11.625 12 11.691406 12.328125 11.65625 C 12.328125 11.742188 12.328125 11.828125 12.328125 11.914062 C 12.402344 11.898438 12.476562 11.882812 12.554688 11.867188 C 12.554688 11.78125 12.554688 11.695312 12.554688 11.609375 C 12.796875 11.546875 12.988281 11.433594 13.136719 11.273438 C 13.285156 11.109375 13.355469 10.925781 13.355469 10.71875 C 13.355469 10.511719 13.292969 10.367188 13.164062 10.285156 C 13.039062 10.203125 12.835938 10.160156 12.566406 10.152344 Z M 12.328125 10.140625 C 12.191406 10.128906 12.101562 10.101562 12.054688 10.066406 C 12.007812 10.03125 11.984375 9.972656 11.984375 9.894531 C 11.984375 9.8125 12.015625 9.742188 12.074219 9.675781 C 12.136719 9.609375 12.21875 9.558594 12.328125 9.527344 C 12.328125 9.730469 12.328125 9.9375 12.328125 10.140625 Z M 12.824219 11.070312 C 12.757812 11.140625 12.667969 11.191406 12.554688 11.230469 C 12.554688 11.015625 12.554688 10.804688 12.554688 10.589844 C 12.695312 10.601562 12.792969 10.625 12.84375 10.664062 C 12.898438 10.699219 12.921875 10.761719 12.921875 10.84375 C 12.921875 10.925781 12.890625 11.003906 12.824219 11.070312 Z M 12.824219 11.070312 " fill-opacity="1" fill-rule="nonzero"></path><g clip-path="url(#f3efbdb07a)"><path fill="#cb6ce6" d="M 33.972656 14.667969 L 24.414062 14.667969 C 23.609375 14.667969 22.960938 15.324219 22.960938 16.128906 L 22.960938 19.742188 C 23.253906 19.800781 23.542969 19.867188 23.828125 19.929688 C 23.871094 19.9375 23.921875 19.949219 23.964844 19.957031 L 23.964844 16.414062 L 34.425781 16.414062 L 34.425781 32.039062 L 23.964844 32.039062 L 23.964844 29.3125 C 23.761719 29.269531 23.5625 29.226562 23.363281 29.183594 C 23.230469 29.15625 23.09375 29.121094 22.960938 29.09375 L 22.960938 32.992188 C 22.960938 33.796875 23.609375 34.441406 24.414062 34.441406 L 33.972656 34.441406 C 34.773438 34.441406 35.429688 33.796875 35.429688 32.992188 L 35.429688 16.128906 C 35.429688 15.324219 34.773438 14.667969 33.972656 14.667969 Z M 30.269531 15.894531 L 28.121094 15.894531 C 27.953125 15.894531 27.816406 15.757812 27.816406 15.589844 C 27.816406 15.425781 27.953125 15.292969 28.121094 15.292969 L 30.269531 15.292969 C 30.4375 15.292969 30.5625 15.421875 30.5625 15.589844 C 30.5625 15.757812 30.4375 15.894531 30.269531 15.894531 Z M 30.367188 33.46875 C 30.351562 33.5 30.316406 33.527344 30.277344 33.527344 L 28.113281 33.527344 C 28.074219 33.527344 28.039062 33.5 28.03125 33.46875 L 27.828125 32.800781 C 27.804688 32.738281 27.847656 32.6875 27.914062 32.6875 L 30.480469 32.6875 C 30.535156 32.6875 30.585938 32.738281 30.558594 32.800781 Z M 30.367188 33.46875 " fill-opacity="1" fill-rule="nonzero"></path></g><path fill="#cb6ce6" d="M 17.9375 27.039062 C 21.707031 26.195312 25.476562 28.675781 29.25 27.832031 C 29.304688 27.550781 29.515625 27.292969 29.785156 27.152344 C 29.785156 25.59375 29.785156 24.035156 29.785156 22.472656 C 29.515625 22.503906 29.304688 22.335938 29.25 22.085938 C 25.476562 22.929688 21.707031 20.449219 17.9375 21.292969 C 17.882812 21.566406 17.667969 21.828125 17.40625 21.964844 C 17.40625 23.523438 17.40625 25.082031 17.40625 26.644531 C 17.667969 26.617188 17.882812 26.78125 17.9375 27.039062 Z M 26.164062 24.691406 C 26.355469 24.714844 26.511719 24.890625 26.511719 25.082031 C 26.511719 25.273438 26.351562 25.417969 26.164062 25.394531 C 25.96875 25.367188 25.8125 25.1875 25.8125 24.992188 C 25.8125 24.800781 25.96875 24.667969 26.164062 24.691406 Z M 23.59375 22.433594 C 24.40625 22.613281 25.054688 23.691406 25.054688 24.867188 C 25.054688 26.042969 24.40625 26.871094 23.59375 26.691406 C 22.785156 26.511719 22.132812 25.433594 22.132812 24.257812 C 22.132812 23.082031 22.785156 22.253906 23.59375 22.433594 Z M 21.027344 23.734375 C 21.21875 23.757812 21.378906 23.941406 21.378906 24.132812 C 21.378906 24.324219 21.21875 24.457031 21.027344 24.433594 C 20.835938 24.410156 20.679688 24.234375 20.679688 24.042969 C 20.679688 23.851562 20.835938 23.707031 21.027344 23.734375 Z M 21.027344 23.734375 " fill-opacity="1" fill-rule="nonzero"></path><path fill="#cb6ce6" d="M 17.199219 27.925781 C 21.464844 26.449219 25.726562 29.78125 29.992188 28.300781 C 30.257812 28.210938 30.46875 27.898438 30.46875 27.636719 C 30.46875 25.585938 30.46875 23.535156 30.46875 21.480469 C 30.46875 21.21875 30.257812 21.09375 29.992188 21.1875 C 25.726562 22.667969 21.464844 19.335938 17.199219 20.8125 C 16.933594 20.902344 16.714844 21.21875 16.714844 21.480469 C 16.714844 23.535156 16.714844 25.585938 16.714844 27.636719 C 16.714844 27.902344 16.933594 28.015625 17.199219 27.925781 Z M 17.132812 21.929688 C 17.132812 21.859375 17.191406 21.777344 17.261719 21.753906 C 17.492188 21.675781 17.679688 21.441406 17.679688 21.210938 C 17.679688 21.140625 17.738281 21.0625 17.808594 21.046875 C 21.664062 20.109375 25.519531 22.722656 29.375 21.785156 C 29.453125 21.765625 29.511719 21.808594 29.511719 21.878906 C 29.511719 22.109375 29.699219 22.25 29.921875 22.171875 C 30 22.148438 30.058594 22.1875 30.058594 22.257812 C 30.058594 23.898438 30.058594 25.539062 30.058594 27.183594 C 30.058594 27.257812 30 27.347656 29.921875 27.371094 C 29.699219 27.445312 29.511719 27.675781 29.511719 27.898438 C 29.511719 27.976562 29.453125 28.058594 29.375 28.078125 C 25.519531 29.015625 21.664062 26.402344 17.808594 27.339844 C 17.738281 27.359375 17.679688 27.308594 17.679688 27.230469 C 17.679688 27.007812 17.492188 26.875 17.261719 26.953125 C 17.191406 26.976562 17.132812 26.929688 17.132812 26.855469 C 17.132812 25.210938 17.132812 23.570312 17.132812 21.929688 Z M 17.132812 21.929688 " fill-opacity="1" fill-rule="nonzero"></path><path fill="#cb6ce6" d="M 22.914062 24.90625 C 22.832031 24.988281 22.753906 25.066406 22.675781 25.148438 C 22.910156 25.441406 23.175781 25.644531 23.472656 25.757812 C 23.472656 25.84375 23.472656 25.929688 23.472656 26.015625 C 23.542969 26.035156 23.609375 26.054688 23.679688 26.074219 C 23.679688 25.988281 23.679688 25.902344 23.679688 25.816406 C 23.898438 25.867188 24.078125 25.84375 24.210938 25.75 C 24.34375 25.660156 24.410156 25.507812 24.410156 25.300781 C 24.410156 25.09375 24.351562 24.917969 24.234375 24.777344 C 24.121094 24.636719 23.9375 24.496094 23.6875 24.367188 C 23.6875 24.363281 23.683594 24.363281 23.679688 24.363281 C 23.679688 24.140625 23.679688 23.917969 23.679688 23.695312 C 23.84375 23.765625 24 23.878906 24.140625 24.03125 C 24.210938 23.941406 24.28125 23.851562 24.351562 23.761719 C 24.140625 23.542969 23.917969 23.390625 23.679688 23.308594 C 23.679688 23.246094 23.679688 23.1875 23.679688 23.125 C 23.609375 23.105469 23.539062 23.089844 23.472656 23.070312 C 23.472656 23.128906 23.472656 23.1875 23.472656 23.246094 C 23.261719 23.203125 23.09375 23.226562 22.960938 23.320312 C 22.832031 23.414062 22.765625 23.5625 22.765625 23.765625 C 22.765625 23.972656 22.824219 24.144531 22.9375 24.277344 C 23.050781 24.414062 23.226562 24.550781 23.472656 24.679688 C 23.472656 24.910156 23.472656 25.140625 23.472656 25.371094 C 23.28125 25.285156 23.09375 25.128906 22.914062 24.90625 Z M 23.679688 24.796875 C 23.808594 24.875 23.898438 24.945312 23.945312 25.007812 C 23.992188 25.070312 24.015625 25.140625 24.015625 25.222656 C 24.015625 25.308594 23.984375 25.367188 23.925781 25.40625 C 23.867188 25.441406 23.785156 25.453125 23.679688 25.4375 C 23.679688 25.222656 23.679688 25.011719 23.679688 24.796875 Z M 23.226562 24.042969 C 23.183594 23.984375 23.160156 23.914062 23.160156 23.835938 C 23.160156 23.757812 23.191406 23.695312 23.242188 23.660156 C 23.300781 23.621094 23.375 23.609375 23.472656 23.628906 C 23.472656 23.832031 23.472656 24.039062 23.472656 24.242188 C 23.351562 24.167969 23.269531 24.101562 23.226562 24.042969 Z M 23.226562 24.042969 " fill-opacity="1" fill-rule="nonzero"></path></svg>