<svg xmlns="http://www.w3.org/2000/svg" xmlns:xlink="http://www.w3.org/1999/xlink" width="48" viewBox="0 0 36 36.000001" height="48" preserveAspectRatio="xMidYMid meet"><defs><clipPath id="7afc05a40d"><path d="M 0.769531 0 L 35.070312 0 L 35.070312 35.027344 L 0.769531 35.027344 Z M 0.769531 0 " clip-rule="nonzero"></path></clipPath></defs><g clip-path="url(#7afc05a40d)"><path fill="#0097b2" d="M 31.992188 0.0078125 L 4.007812 0.0078125 C 2.222656 0.0078125 0.769531 1.460938 0.769531 3.242188 L 0.769531 23.332031 C 0.769531 25.117188 2.222656 26.566406 4.007812 26.566406 L 12.832031 26.566406 L 12.832031 30.5625 L 6.589844 30.5625 C 6.4375 30.5625 6.3125 30.6875 6.3125 30.839844 L 6.3125 34.742188 C 6.3125 34.894531 6.4375 35.019531 6.589844 35.019531 L 29.410156 35.019531 C 29.5625 35.019531 29.6875 34.894531 29.6875 34.742188 L 29.6875 30.839844 C 29.6875 30.6875 29.5625 30.5625 29.410156 30.5625 L 23.167969 30.5625 L 23.167969 26.566406 L 31.992188 26.566406 C 33.777344 26.566406 35.226562 25.117188 35.226562 23.332031 L 35.226562 3.242188 C 35.226562 1.460938 33.777344 0.0078125 31.992188 0.0078125 Z M 1.328125 3.242188 C 1.328125 1.765625 2.53125 0.5625 4.007812 0.5625 L 20.328125 0.5625 L 20.328125 22.113281 L 1.328125 22.113281 Z M 22.609375 30.5625 L 13.386719 30.5625 L 13.386719 26.566406 L 22.609375 26.566406 Z M 34.671875 22.113281 L 20.886719 22.113281 L 20.886719 0.5625 L 31.992188 0.5625 C 33.46875 0.5625 34.671875 1.765625 34.671875 3.242188 Z M 34.671875 22.113281 " fill-opacity="1" fill-rule="nonzero"></path></g><path fill="#0097b2" d="M 32.769531 2.953125 C 32.660156 2.910156 32.539062 2.941406 32.460938 3.023438 L 29.722656 6.058594 L 28.628906 4.964844 C 28.519531 4.855469 28.34375 4.855469 28.234375 4.964844 L 26.503906 6.6875 L 25.71875 5.644531 C 25.667969 5.578125 25.59375 5.535156 25.507812 5.535156 C 25.425781 5.527344 25.34375 5.5625 25.289062 5.625 L 22.683594 8.550781 C 22.609375 8.632812 22.589844 8.75 22.636719 8.851562 C 22.679688 8.949219 22.78125 9.015625 22.890625 9.015625 L 32.667969 9.015625 C 32.820312 9.015625 32.945312 8.890625 32.945312 8.738281 L 32.945312 3.210938 C 32.945312 3.097656 32.875 2.992188 32.769531 2.953125 Z M 32.769531 2.953125 " fill-opacity="1" fill-rule="nonzero"></path><path fill="#0097b2" d="M 32.667969 14.636719 L 31.96875 14.636719 L 31.96875 13.613281 C 31.96875 13.460938 31.84375 13.335938 31.691406 13.335938 C 31.535156 13.335938 31.414062 13.460938 31.414062 13.613281 L 31.414062 14.636719 L 30.710938 14.636719 C 30.558594 14.636719 30.433594 14.757812 30.433594 14.914062 C 30.433594 15.066406 30.558594 15.191406 30.710938 15.191406 L 31.414062 15.191406 L 31.414062 20.113281 C 31.414062 20.265625 31.535156 20.390625 31.691406 20.390625 C 31.84375 20.390625 31.96875 20.265625 31.96875 20.113281 L 31.96875 15.191406 L 32.667969 15.191406 C 32.820312 15.191406 32.945312 15.066406 32.945312 14.914062 C 32.945312 14.757812 32.820312 14.636719 32.667969 14.636719 Z M 32.667969 14.636719 " fill-opacity="1" fill-rule="nonzero"></path><path fill="#0097b2" d="M 23.867188 11.613281 L 31.691406 11.613281 C 31.84375 11.613281 31.96875 11.492188 31.96875 11.335938 C 31.96875 11.183594 31.84375 11.058594 31.691406 11.058594 L 23.867188 11.058594 C 23.714844 11.058594 23.589844 11.183594 23.589844 11.335938 C 23.589844 11.492188 23.714844 11.613281 23.867188 11.613281 Z M 23.867188 11.613281 " fill-opacity="1" fill-rule="nonzero"></path><path fill="#0097b2" d="M 28.757812 18.535156 L 28.058594 18.535156 L 28.058594 13.613281 C 28.058594 13.460938 27.933594 13.335938 27.777344 13.335938 C 27.625 13.335938 27.5 13.460938 27.5 13.613281 L 27.5 18.535156 L 26.800781 18.535156 C 26.648438 18.535156 26.523438 18.660156 26.523438 18.8125 C 26.523438 18.96875 26.648438 19.09375 26.800781 19.09375 L 27.5 19.09375 L 27.5 20.113281 C 27.5 20.265625 27.625 20.390625 27.777344 20.390625 C 27.933594 20.390625 28.058594 20.265625 28.058594 20.113281 L 28.058594 19.09375 L 28.757812 19.09375 C 28.910156 19.09375 29.035156 18.96875 29.035156 18.8125 C 29.035156 18.660156 28.910156 18.535156 28.757812 18.535156 Z M 28.757812 18.535156 " fill-opacity="1" fill-rule="nonzero"></path><path fill="#0097b2" d="M 24.84375 16.585938 L 24.144531 16.585938 L 24.144531 13.613281 C 24.144531 13.460938 24.019531 13.335938 23.867188 13.335938 C 23.714844 13.335938 23.589844 13.460938 23.589844 13.613281 L 23.589844 16.585938 L 22.890625 16.585938 C 22.734375 16.585938 22.609375 16.710938 22.609375 16.863281 C 22.609375 17.015625 22.734375 17.140625 22.890625 17.140625 L 23.589844 17.140625 L 23.589844 20.113281 C 23.589844 20.265625 23.714844 20.390625 23.867188 20.390625 C 24.019531 20.390625 24.144531 20.265625 24.144531 20.113281 L 24.144531 17.140625 L 24.84375 17.140625 C 25 17.140625 25.121094 17.015625 25.121094 16.863281 C 25.121094 16.710938 25 16.585938 24.84375 16.585938 Z M 24.84375 16.585938 " fill-opacity="1" fill-rule="nonzero"></path><path fill="#0097b2" d="M 18 9.757812 L 16.089844 9.757812 C 15.984375 9.410156 15.84375 9.066406 15.667969 8.742188 L 17.015625 7.398438 C 17.070312 7.34375 17.097656 7.273438 17.097656 7.199219 C 17.097656 7.125 17.070312 7.054688 17.015625 7.003906 L 15.171875 5.164062 C 15.066406 5.054688 14.890625 5.054688 14.78125 5.164062 L 13.429688 6.511719 C 13.101562 6.335938 12.761719 6.195312 12.410156 6.089844 L 12.410156 4.1875 C 12.410156 4.03125 12.285156 3.90625 12.132812 3.90625 L 9.523438 3.90625 C 9.371094 3.90625 9.246094 4.03125 9.246094 4.1875 L 9.246094 6.089844 C 8.894531 6.195312 8.554688 6.335938 8.226562 6.511719 L 6.875 5.164062 C 6.765625 5.054688 6.589844 5.054688 6.484375 5.164062 L 4.640625 7.003906 C 4.585938 7.054688 4.558594 7.125 4.558594 7.199219 C 4.558594 7.273438 4.585938 7.34375 4.640625 7.398438 L 5.988281 8.742188 C 5.8125 9.066406 5.671875 9.410156 5.566406 9.757812 L 3.65625 9.757812 C 3.503906 9.757812 3.378906 9.882812 3.378906 10.039062 L 3.378906 12.636719 C 3.378906 12.789062 3.503906 12.914062 3.65625 12.914062 L 5.566406 12.914062 C 5.671875 13.265625 5.8125 13.605469 5.988281 13.929688 L 4.640625 15.277344 C 4.585938 15.332031 4.558594 15.402344 4.558594 15.472656 C 4.558594 15.546875 4.585938 15.617188 4.640625 15.671875 L 6.484375 17.511719 C 6.589844 17.617188 6.765625 17.617188 6.875 17.511719 L 8.226562 16.164062 C 8.554688 16.339844 8.894531 16.480469 9.246094 16.585938 L 9.246094 18.488281 C 9.246094 18.640625 9.371094 18.765625 9.523438 18.765625 L 12.132812 18.765625 C 12.285156 18.765625 12.410156 18.640625 12.410156 18.488281 L 12.410156 16.585938 C 12.761719 16.480469 13.101562 16.339844 13.429688 16.164062 L 14.78125 17.511719 C 14.890625 17.617188 15.066406 17.617188 15.171875 17.511719 L 17.015625 15.671875 C 17.070312 15.617188 17.097656 15.546875 17.097656 15.472656 C 17.097656 15.402344 17.070312 15.332031 17.015625 15.277344 L 15.667969 13.929688 C 15.84375 13.605469 15.984375 13.265625 16.089844 12.914062 L 18 12.914062 C 18.152344 12.914062 18.277344 12.789062 18.277344 12.636719 L 18.277344 10.039062 C 18.277344 9.882812 18.152344 9.757812 18 9.757812 Z M 12.179688 11.335938 C 12.179688 12.082031 11.574219 12.683594 10.828125 12.683594 C 10.082031 12.683594 9.476562 12.082031 9.476562 11.335938 C 9.476562 10.59375 10.082031 9.988281 10.828125 9.988281 C 11.574219 9.988281 12.179688 10.59375 12.179688 11.335938 Z M 12.179688 11.335938 " fill-opacity="1" fill-rule="nonzero"></path></svg>