<svg width="19" height="19" viewBox="0 0 19 19" fill="none" xmlns="http://www.w3.org/2000/svg">
<g clip-path="url(#clip0_15_16576)">
<path d="M10.9937 10.938C10.4494 10.4741 9.84635 10.1185 9.18457 9.87109C8.52279 9.6237 7.83626 9.5 7.125 9.5C6.58073 9.5 6.05501 9.57113 5.54785 9.71338C5.04069 9.85563 4.56755 10.0535 4.12842 10.3071C3.68929 10.5607 3.29036 10.87 2.93164 11.2349C2.57292 11.5998 2.26367 12.0018 2.00391 12.4409C1.74414 12.88 1.54313 13.3532 1.40088 13.8604C1.25863 14.3675 1.1875 14.8932 1.1875 15.4375H0C0 14.6953 0.108236 13.981 0.324707 13.2944C0.541178 12.6079 0.853516 11.974 1.26172 11.3926C1.66992 10.8112 2.15234 10.2948 2.70898 9.84326C3.26562 9.39176 3.89648 9.03613 4.60156 8.77637C3.90267 8.31868 3.3584 7.74349 2.96875 7.05078C2.5791 6.35807 2.38118 5.59115 2.375 4.75C2.375 4.0944 2.4987 3.479 2.74609 2.90381C2.99349 2.32861 3.33057 1.82454 3.75732 1.3916C4.18408 0.958659 4.68815 0.61849 5.26953 0.371094C5.85091 0.123698 6.4694 0 7.125 0C7.7806 0 8.396 0.123698 8.97119 0.371094C9.54639 0.61849 10.0505 0.955566 10.4834 1.38232C10.9163 1.80908 11.2565 2.31315 11.5039 2.89453C11.7513 3.47591 11.875 4.0944 11.875 4.75C11.875 5.1582 11.8255 5.55713 11.7266 5.94678C11.6276 6.33643 11.4792 6.70443 11.2812 7.05078C11.0833 7.39714 10.8514 7.71566 10.5854 8.00635C10.3195 8.29704 10.0072 8.55371 9.64844 8.77637C10.0505 8.93099 10.4339 9.11963 10.7988 9.34229C11.1637 9.56494 11.507 9.81543 11.8286 10.0938L10.9937 10.938ZM3.5625 4.75C3.5625 5.24479 3.65527 5.70557 3.84082 6.13232C4.02637 6.55908 4.27995 6.93636 4.60156 7.26416C4.92318 7.59196 5.30046 7.84863 5.7334 8.03418C6.16634 8.21973 6.63021 8.3125 7.125 8.3125C7.61361 8.3125 8.07438 8.21973 8.50732 8.03418C8.94027 7.84863 9.31755 7.59505 9.63916 7.27344C9.96077 6.95182 10.2174 6.57454 10.4092 6.1416C10.6009 5.70866 10.6937 5.24479 10.6875 4.75C10.6875 4.26139 10.5947 3.80062 10.4092 3.36768C10.2236 2.93473 9.97005 2.55745 9.64844 2.23584C9.32682 1.91423 8.94645 1.65755 8.50732 1.46582C8.0682 1.27409 7.60742 1.18132 7.125 1.1875C6.63021 1.1875 6.16943 1.28027 5.74268 1.46582C5.31592 1.65137 4.93864 1.90495 4.61084 2.22656C4.28304 2.54818 4.02637 2.92855 3.84082 3.36768C3.65527 3.8068 3.5625 4.26758 3.5625 4.75ZM16.0312 7.125C16.4395 7.125 16.8229 7.20231 17.1816 7.35693C17.5404 7.51156 17.8527 7.72494 18.1187 7.99707C18.3846 8.26921 18.598 8.58464 18.7588 8.94336C18.9196 9.30208 19 9.68555 19 10.0938C19 10.502 18.9227 10.8854 18.7681 11.2441C18.6134 11.6029 18.4001 11.9183 18.1279 12.1904C17.8558 12.4626 17.5404 12.6759 17.1816 12.8306C16.8229 12.9852 16.4395 13.0625 16.0312 13.0625C15.889 13.0625 15.7498 13.0532 15.6138 13.0347L10.168 18.4805C10.001 18.6475 9.80925 18.7743 9.59277 18.8608C9.3763 18.9474 9.14746 18.9938 8.90625 19C8.65885 19 8.42692 18.9536 8.21045 18.8608C7.99398 18.7681 7.80534 18.6413 7.64453 18.4805C7.48372 18.3197 7.35693 18.131 7.26416 17.9146C7.17139 17.6981 7.125 17.4661 7.125 17.2188C7.125 16.9837 7.16829 16.758 7.25488 16.5415C7.34147 16.325 7.47135 16.1302 7.64453 15.957L13.0903 10.5112C13.0718 10.3752 13.0625 10.236 13.0625 10.0938C13.0625 9.68555 13.1398 9.30208 13.2944 8.94336C13.4491 8.58464 13.6593 8.2723 13.9253 8.00635C14.1912 7.7404 14.5067 7.52702 14.8716 7.36621C15.2365 7.2054 15.623 7.125 16.0312 7.125ZM16.0312 11.875C16.2786 11.875 16.5106 11.8286 16.7271 11.7358C16.9435 11.6431 17.1322 11.5163 17.293 11.3555C17.4538 11.1947 17.5806 11.006 17.6733 10.7896C17.7661 10.5731 17.8125 10.3411 17.8125 10.0938C17.8125 9.84017 17.7537 9.58659 17.6362 9.33301L16.2817 10.6875H15.4375V9.84326L16.792 8.48877C16.5384 8.37126 16.2848 8.3125 16.0312 8.3125C15.7839 8.3125 15.5519 8.35889 15.3354 8.45166C15.119 8.54443 14.9303 8.67122 14.7695 8.83203C14.6087 8.99284 14.4819 9.18148 14.3892 9.39795C14.2964 9.61442 14.25 9.84635 14.25 10.0938C14.25 10.3473 14.3088 10.6009 14.4263 10.8545L8.48877 16.8013C8.37126 16.9188 8.3125 17.0579 8.3125 17.2188C8.3125 17.3796 8.37126 17.5187 8.48877 17.6362C8.60628 17.7537 8.74544 17.8125 8.90625 17.8125C9.06706 17.8125 9.20622 17.7537 9.32373 17.6362L15.2705 11.6987C15.5241 11.8162 15.7777 11.875 16.0312 11.875Z" fill="#008ac6"/>
</g>
<defs>
<clipPath id="clip0_15_16576">
<rect width="19" height="19" fill="#008ac6"/>
</clipPath>
</defs>
</svg>
