<svg width="20" height="20" viewBox="0 0 20 20" fill="none" xmlns="http://www.w3.org/2000/svg">
<path d="M14 2.75C14 2.55109 14.079 2.36032 14.2196 2.21967C14.3603 2.07902 14.5511 2 14.75 2H17.25C17.4489 2 17.6396 2.07902 17.7803 2.21967C17.921 2.36032 18 2.55109 18 2.75V5.25C18 5.44891 17.921 5.63968 17.7803 5.78033C17.6396 5.92098 17.4489 6 17.25 6C17.0511 6 16.8603 5.92098 16.7196 5.78033C16.579 5.63968 16.5 5.44891 16.5 5.25V4.56L12.03 9.03C11.8893 9.17045 11.6987 9.24934 11.5 9.24934C11.3012 9.24934 11.1106 9.17045 10.97 9.03L8.49997 6.56L4.27997 10.78C4.21131 10.8537 4.12851 10.9128 4.03651 10.9538C3.94451 10.9948 3.8452 11.0168 3.74449 11.0186C3.64379 11.0204 3.54376 11.0018 3.45037 10.9641C3.35698 10.9264 3.27215 10.8703 3.20093 10.799C3.12971 10.7278 3.07357 10.643 3.03585 10.5496C2.99813 10.4562 2.9796 10.3562 2.98138 10.2555C2.98316 10.1548 3.0052 10.0555 3.04619 9.96346C3.08718 9.87146 3.14628 9.78866 3.21997 9.72L7.96997 4.97C8.1106 4.82955 8.30122 4.75066 8.49997 4.75066C8.69872 4.75066 8.88934 4.82955 9.02997 4.97L11.5 7.44L15.44 3.5H14.75C14.5511 3.5 14.3603 3.42098 14.2196 3.28033C14.079 3.13968 14 2.94891 14 2.75ZM3.74997 14C3.94888 14 4.13965 14.079 4.2803 14.2197C4.42095 14.3603 4.49997 14.5511 4.49997 14.75V17.25C4.49997 17.4489 4.42095 17.6397 4.2803 17.7803C4.13965 17.921 3.94888 18 3.74997 18C3.55106 18 3.36029 17.921 3.21964 17.7803C3.07899 17.6397 2.99997 17.4489 2.99997 17.25V14.75C2.99997 14.5511 3.07899 14.3603 3.21964 14.2197C3.36029 14.079 3.55106 14 3.74997 14ZM8.49997 11.75C8.49997 11.5511 8.42095 11.3603 8.2803 11.2197C8.13965 11.079 7.94888 11 7.74997 11C7.55106 11 7.36029 11.079 7.21964 11.2197C7.07899 11.3603 6.99997 11.5511 6.99997 11.75V17.25C6.99997 17.4489 7.07899 17.6397 7.21964 17.7803C7.36029 17.921 7.55106 18 7.74997 18C7.94888 18 8.13965 17.921 8.2803 17.7803C8.42095 17.6397 8.49997 17.4489 8.49997 17.25V11.75ZM11.75 13C11.9489 13 12.1396 13.079 12.2803 13.2197C12.421 13.3603 12.5 13.5511 12.5 13.75V17.25C12.5 17.4489 12.421 17.6397 12.2803 17.7803C12.1396 17.921 11.9489 18 11.75 18C11.5511 18 11.3603 17.921 11.2196 17.7803C11.079 17.6397 11 17.4489 11 17.25V13.75C11 13.5511 11.079 13.3603 11.2196 13.2197C11.3603 13.079 11.5511 13 11.75 13ZM16.5 9.75C16.5 9.55109 16.421 9.36032 16.2803 9.21967C16.1396 9.07902 15.9489 9 15.75 9C15.5511 9 15.3603 9.07902 15.2196 9.21967C15.079 9.36032 15 9.55109 15 9.75V17.25C15 17.4489 15.079 17.6397 15.2196 17.7803C15.3603 17.921 15.5511 18 15.75 18C15.9489 18 16.1396 17.921 16.2803 17.7803C16.421 17.6397 16.5 17.4489 16.5 17.25V9.75Z" fill="black"/>
</svg>
