<svg width="24" height="24" viewBox="0 0 24 24" fill="none" xmlns="http://www.w3.org/2000/svg">
<path d="M16.749 2H21.303L21.403 2.014L21.502 2.042L21.562 2.068C21.642 2.102 21.715 2.153 21.781 2.218L21.821 2.262L21.865 2.319L21.919 2.409L21.958 2.499L21.977 2.563L21.991 2.627L22 2.722V7.254C21.9999 7.44402 21.9278 7.62694 21.798 7.76579C21.6683 7.90464 21.4907 7.98907 21.3011 8.00203C21.1115 8.01498 20.9241 7.95548 20.7767 7.83557C20.6293 7.71565 20.5329 7.54425 20.507 7.356L20.5 7.254V4.559L14.06 10.999C13.933 11.126 13.7647 11.2032 13.5856 11.2166C13.4064 11.23 13.2285 11.1787 13.084 11.072L13 11L9.97001 8.09L4.28001 13.779C4.14618 13.9132 3.96652 13.9917 3.77713 13.9989C3.58775 14.006 3.40269 13.9412 3.25917 13.8174C3.11564 13.6936 3.02429 13.5201 3.00348 13.3317C2.98268 13.1434 3.03395 12.9541 3.14701 12.802L3.22001 12.718L9.44001 6.498C9.56712 6.37113 9.73554 6.29409 9.91465 6.28088C10.0938 6.26766 10.2717 6.31916 10.416 6.426L10.5 6.498L13.53 9.408L19.438 3.5H16.748C16.5669 3.49975 16.3921 3.43401 16.2557 3.3149C16.1193 3.1958 16.0306 3.03138 16.006 2.852L15.999 2.75C15.999 2.56876 16.0646 2.39366 16.1838 2.25707C16.3029 2.12048 16.4675 2.03165 16.647 2.007L16.749 2ZM3.75001 17C3.94892 17 4.13968 17.079 4.28034 17.2197C4.42099 17.3603 4.50001 17.5511 4.50001 17.75V21.25C4.50001 21.4489 4.42099 21.6397 4.28034 21.7803C4.13968 21.921 3.94892 22 3.75001 22C3.55109 22 3.36033 21.921 3.21968 21.7803C3.07902 21.6397 3.00001 21.4489 3.00001 21.25V17.75C3.00001 17.5511 3.07902 17.3603 3.21968 17.2197C3.36033 17.079 3.55109 17 3.75001 17ZM9.50001 13.75C9.50001 13.5511 9.42099 13.3603 9.28034 13.2197C9.13968 13.079 8.94892 13 8.75001 13C8.55109 13 8.36033 13.079 8.21968 13.2197C8.07902 13.3603 8.00001 13.5511 8.00001 13.75V21.25C8.00001 21.4489 8.07902 21.6397 8.21968 21.7803C8.36033 21.921 8.55109 22 8.75001 22C8.94892 22 9.13968 21.921 9.28034 21.7803C9.42099 21.6397 9.50001 21.4489 9.50001 21.25V13.75ZM13.75 15C13.9489 15 14.1397 15.079 14.2803 15.2197C14.421 15.3603 14.5 15.5511 14.5 15.75V21.25C14.5 21.4489 14.421 21.6397 14.2803 21.7803C14.1397 21.921 13.9489 22 13.75 22C13.5511 22 13.3603 21.921 13.2197 21.7803C13.079 21.6397 13 21.4489 13 21.25V15.75C13 15.5511 13.079 15.3603 13.2197 15.2197C13.3603 15.079 13.5511 15 13.75 15ZM19.5 10.75C19.5 10.5511 19.421 10.3603 19.2803 10.2197C19.1397 10.079 18.9489 10 18.75 10C18.5511 10 18.3603 10.079 18.2197 10.2197C18.079 10.3603 18 10.5511 18 10.75V21.25C18 21.4489 18.079 21.6397 18.2197 21.7803C18.3603 21.921 18.5511 22 18.75 22C18.9489 22 19.1397 21.921 19.2803 21.7803C19.421 21.6397 19.5 21.4489 19.5 21.25V10.75Z" fill="black"/>
</svg>
