<svg width="25" height="25" viewBox="0 0 25 25" fill="none" xmlns="http://www.w3.org/2000/svg">
<g clip-path="url(#clip0_15_16611)">
<path d="M10.5957 17.8345C11.1247 18.103 11.6007 18.4326 12.0239 18.8233C12.4471 19.2139 12.8133 19.6533 13.1226 20.1416C13.4318 20.6299 13.6637 21.1507 13.8184 21.7041C13.973 22.2575 14.0544 22.8353 14.0625 23.4375H12.5C12.5 22.7946 12.3779 22.1883 12.1338 21.6187C11.8896 21.049 11.556 20.5526 11.1328 20.1294C10.7096 19.7062 10.2091 19.3685 9.63135 19.1162C9.05355 18.8639 8.44727 18.7419 7.8125 18.75C7.16146 18.75 6.55518 18.8721 5.99365 19.1162C5.43213 19.3604 4.93571 19.694 4.50439 20.1172C4.07308 20.5404 3.73535 21.0409 3.49121 21.6187C3.24707 22.1965 3.125 22.8027 3.125 23.4375H1.5625C1.5625 22.8434 1.64388 22.2697 1.80664 21.7163C1.9694 21.1629 2.20133 20.6421 2.50244 20.1538C2.80355 19.6655 3.16569 19.2261 3.58887 18.8355C4.01204 18.4448 4.49219 18.1112 5.0293 17.8345C4.42708 17.3869 3.95915 16.8335 3.62549 16.1743C3.29183 15.5152 3.125 14.8112 3.125 14.0625C3.125 13.4196 3.24707 12.8133 3.49121 12.2437C3.73535 11.674 4.06901 11.1776 4.49219 10.7544C4.91536 10.3312 5.41178 9.9935 5.98145 9.74123C6.55111 9.48895 7.16146 9.36688 7.8125 9.37502C8.5612 9.37502 9.26514 9.54184 9.92432 9.8755C10.5835 10.2092 11.1369 10.6771 11.5845 11.2793C11.8937 10.669 12.2884 10.1237 12.7686 9.64357C13.2487 9.16343 13.7939 8.76873 14.4043 8.45949C13.8021 8.0119 13.3341 7.45851 13.0005 6.79933C12.6668 6.14015 12.5 5.43621 12.5 4.68752C12.5 4.04461 12.6221 3.43833 12.8662 2.86867C13.1104 2.29901 13.444 1.80259 13.8672 1.37941C14.2904 0.956233 14.7868 0.618505 15.3564 0.366226C15.9261 0.113948 16.5365 -0.00812276 17.1875 1.52588e-05C17.8304 1.52588e-05 18.4367 0.122086 19.0063 0.366226C19.576 0.610367 20.0724 0.944026 20.4956 1.3672C20.9188 1.79038 21.2565 2.29087 21.5088 2.86867C21.7611 3.44647 21.8831 4.05275 21.875 4.68752C21.875 5.43621 21.7082 6.14015 21.3745 6.79933C21.0409 7.45851 20.5729 8.0119 19.9707 8.45949C20.4997 8.72804 20.9757 9.05763 21.3989 9.44826C21.8221 9.83888 22.1883 10.2783 22.4976 10.7666C22.8068 11.2549 23.0387 11.7757 23.1934 12.3291C23.348 12.8825 23.4294 13.4603 23.4375 14.0625H21.875C21.875 13.4196 21.7529 12.8133 21.5088 12.2437C21.2646 11.674 20.931 11.1776 20.5078 10.7544C20.0846 10.3312 19.5841 9.9935 19.0063 9.74123C18.4285 9.48895 17.8223 9.36688 17.1875 9.37502C16.5365 9.37502 15.9302 9.49709 15.3687 9.74123C14.8071 9.98537 14.3107 10.319 13.8794 10.7422C13.4481 11.1654 13.1104 11.6659 12.8662 12.2437C12.6221 12.8215 12.5 13.4277 12.5 14.0625C12.5 14.8112 12.3332 15.5152 11.9995 16.1743C11.6659 16.8335 11.1979 17.3869 10.5957 17.8345ZM14.0625 4.68752C14.0625 5.11883 14.1439 5.52166 14.3066 5.89601C14.4694 6.27036 14.6932 6.60402 14.978 6.89699C15.2629 7.18996 15.5924 7.41375 15.9668 7.56837C16.3411 7.723 16.748 7.80438 17.1875 7.81252C17.6188 7.81252 18.0216 7.73113 18.396 7.56837C18.7703 7.40561 19.104 7.18182 19.397 6.89699C19.6899 6.61216 19.9137 6.28257 20.0684 5.90822C20.223 5.53387 20.3044 5.12697 20.3125 4.68752C20.3125 4.2562 20.2311 3.85337 20.0684 3.47902C19.9056 3.10467 19.6818 2.77101 19.397 2.47804C19.1121 2.18507 18.7826 1.96128 18.4082 1.80666C18.0339 1.65203 17.627 1.57065 17.1875 1.56252C16.7562 1.56252 16.3534 1.6439 15.979 1.80666C15.6047 1.96942 15.271 2.19321 14.978 2.47804C14.6851 2.76287 14.4613 3.09246 14.3066 3.46681C14.152 3.84116 14.0706 4.24806 14.0625 4.68752ZM4.6875 14.0625C4.6875 14.4938 4.76888 14.8967 4.93164 15.271C5.0944 15.6454 5.3182 15.979 5.60303 16.272C5.88786 16.565 6.21745 16.7888 6.5918 16.9434C6.96615 17.098 7.37305 17.1794 7.8125 17.1875C8.24381 17.1875 8.64665 17.1061 9.021 16.9434C9.39535 16.7806 9.729 16.5568 10.022 16.272C10.3149 15.9872 10.5387 15.6576 10.6934 15.2832C10.848 14.9089 10.9294 14.502 10.9375 14.0625C10.9375 13.6312 10.8561 13.2284 10.6934 12.854C10.5306 12.4797 10.3068 12.146 10.022 11.853C9.73714 11.5601 9.40755 11.3363 9.0332 11.1817C8.65885 11.027 8.25195 10.9457 7.8125 10.9375C7.38119 10.9375 6.97835 11.0189 6.604 11.1817C6.22965 11.3444 5.896 11.5682 5.60303 11.853C5.31006 12.1379 5.08626 12.4675 4.93164 12.8418C4.77702 13.2162 4.69564 13.6231 4.6875 14.0625ZM23.0469 25L19.5312 22.2534L16.0156 25L17.4316 20.6055L14.0625 17.9688H18.2739L19.5312 14.0625L20.7886 17.9688H25L21.6309 20.6055L23.0469 25Z" fill="black"/>
</g>
<defs>
<clipPath id="clip0_15_16611">
<rect width="25" height="25" fill="white"/>
</clipPath>
</defs>
</svg>
