<svg width="24" height="32" viewBox="0 0 24 32" fill="none" xmlns="http://www.w3.org/2000/svg">
<path d="M18.893 14.9764C19.0372 14.827 19.117 14.6271 19.1152 14.4195C19.1134 14.2119 19.0302 14.0134 18.8834 13.8666C18.7366 13.7198 18.5381 13.6365 18.3305 13.6347C18.1229 13.6329 17.9229 13.7127 17.7736 13.8569L12 19.6306L9.39304 17.0236C9.24373 16.8794 9.04375 16.7996 8.83618 16.8014C8.62861 16.8032 8.43005 16.8865 8.28327 17.0332C8.13648 17.18 8.05323 17.3786 8.05142 17.5862C8.04962 17.7937 8.12941 17.9937 8.27362 18.143L12 21.8694L18.893 14.9764Z" fill="black"/>
<path fill-rule="evenodd" clip-rule="evenodd" d="M23.0834 8.87498V25.5C23.0834 26.1299 22.8332 26.734 22.3878 27.1794C21.9424 27.6248 21.3383 27.875 20.7084 27.875H6.45837C5.82848 27.875 5.22439 27.6248 4.779 27.1794C4.3336 26.734 4.08337 26.1299 4.08337 25.5V3.33331C4.08337 2.70342 4.3336 2.09933 4.779 1.65393C5.22439 1.20854 5.82848 0.958313 6.45837 0.958313H15.1667L23.0834 8.87498ZM15.1667 9.66665C14.9567 9.66665 14.7554 9.58324 14.6069 9.43477C14.4584 9.28631 14.375 9.08494 14.375 8.87498V2.54165H6.45837C6.24841 2.54165 6.04705 2.62505 5.89858 2.77352C5.75011 2.92199 5.66671 3.12335 5.66671 3.33331V25.5C5.66671 25.7099 5.75011 25.9113 5.89858 26.0598C6.04705 26.2082 6.24841 26.2916 6.45837 26.2916H20.7084C20.9183 26.2916 21.1197 26.2082 21.2682 26.0598C21.4166 25.9113 21.5 25.7099 21.5 25.5V9.66665H15.1667ZM15.9584 3.98881L20.0529 8.08331H15.9584V3.98881Z" fill="black"/>
<path d="M2.50002 5.70831V27.0833C2.50002 27.7132 2.75024 28.3173 3.19564 28.7627C3.64104 29.2081 4.24513 29.4583 4.87502 29.4583H19.9167V31.0416H4.87502C3.82521 31.0416 2.81839 30.6246 2.07606 29.8823C1.33372 29.1399 0.916687 28.1331 0.916687 27.0833V5.70831H2.50002Z" fill="black"/>
</svg>
