<svg width="20" height="21" viewBox="0 0 20 21" fill="none" xmlns="http://www.w3.org/2000/svg">
<path d="M9.861 0.503512C10.3449 0.181072 10.912 0.00619795 11.4935 0.000161718C12.0749 -0.00587452 12.6455 0.157187 13.136 0.469512L17.29 3.11351H19C19.2652 3.11351 19.5196 3.21887 19.7071 3.4064C19.8946 3.59394 20 3.84829 20 4.11351V13.1135C20 13.3787 19.8946 13.6331 19.7071 13.8206C19.5196 14.0082 19.2652 14.1135 19 14.1135H17.48C17.5121 14.6005 17.4091 15.0868 17.1823 15.5189C16.9556 15.9511 16.6139 16.3122 16.195 16.5625L11.102 19.6185C10.7891 19.8061 10.4308 19.9046 10.0659 19.9031C9.70101 19.9017 9.34348 19.8005 9.032 19.6105C8.68116 19.9205 8.2327 20.0976 7.76472 20.1109C7.29675 20.1243 6.83892 19.973 6.471 19.6835L1.331 15.6445C0.971856 15.3625 0.719986 14.9661 0.61721 14.5211C0.514435 14.0762 0.566937 13.6095 0.766 13.1985C0.527208 13.0113 0.334145 12.7722 0.201433 12.4993C0.0687203 12.2264 -0.000162577 11.9269 2.88133e-07 11.6235V4.11351C2.88133e-07 3.84829 0.105357 3.59394 0.292893 3.4064C0.48043 3.21887 0.734784 3.11351 1 3.11351H5.947L9.861 0.503512ZM2.173 11.7595L2.865 11.1545C3.45638 10.6372 4.22711 10.3726 5.01154 10.4174C5.79596 10.4623 6.53148 10.8131 7.06 11.3945L9.762 14.3665C10.1857 14.8326 10.452 15.4202 10.5231 16.0461C10.5941 16.6719 10.4664 17.3043 10.158 17.8535L15.167 14.8485C15.298 14.7697 15.3974 14.6477 15.4482 14.5035C15.4989 14.3593 15.4978 14.202 15.445 14.0585L11.018 7.86051C10.8968 7.69064 10.7254 7.56296 10.528 7.49536C10.3306 7.42775 10.1169 7.42361 9.917 7.48351L7.431 8.22851C6.91221 8.38412 6.36097 8.39637 5.83577 8.26397C5.31058 8.13157 4.83102 7.85946 4.448 7.47651L4.155 7.18451C3.88895 6.919 3.70323 6.58379 3.6192 6.21743C3.53518 5.85107 3.55625 5.46843 3.68 5.11351H2V11.6235L2.173 11.7595ZM12.063 2.15751C11.8993 2.05322 11.7088 1.99883 11.5147 2.00096C11.3206 2.00309 11.1314 2.06166 10.97 2.16951L5.57 5.76951L5.862 6.06251C5.98981 6.19016 6.14981 6.28081 6.325 6.32483C6.50019 6.36885 6.68403 6.36459 6.857 6.31251L9.342 5.56751C9.94163 5.3877 10.5825 5.39997 11.1748 5.60261C11.7671 5.80524 12.2812 6.18809 12.645 6.69751L16.515 12.1135H18V5.11351H17.291C16.9105 5.11346 16.5379 5.00488 16.217 4.80051L12.063 2.15751ZM4.181 12.6585L2.565 14.0725L7.705 18.1115L8.41 16.8795C8.51475 16.696 8.5587 16.4841 8.53552 16.274C8.51235 16.064 8.42324 15.8667 8.281 15.7105L5.58 12.7385C5.40384 12.5448 5.15873 12.4279 4.89734 12.413C4.63595 12.398 4.37811 12.4862 4.181 12.6585Z" fill="#008ac6"/>
</svg>
