<svg width="35" height="35" viewBox="0 0 33 33" fill="none" xmlns="http://www.w3.org/2000/svg">
<path d="M13.75 15.125V12.375C13.75 11.6457 14.0397 10.9462 14.5555 10.4305C15.0712 9.91473 15.7707 9.625 16.5 9.625C17.2293 9.625 17.9288 9.91473 18.4445 10.4305C18.9603 10.9462 19.25 11.6457 19.25 12.375V15.125M11 16.5C11 16.1353 11.1449 15.7856 11.4027 15.5277C11.6606 15.2699 12.0103 15.125 12.375 15.125H20.625C20.9897 15.125 21.3394 15.2699 21.5973 15.5277C21.8551 15.7856 22 16.1353 22 16.5V20.625C22 20.9897 21.8551 21.3394 21.5973 21.5973C21.3394 21.8551 20.9897 22 20.625 22H12.375C12.0103 22 11.6606 21.8551 11.4027 21.5973C11.1449 21.3394 11 20.9897 11 20.625V16.5ZM5.5 8.25C5.5 7.52065 5.78973 6.82118 6.30546 6.30546C6.82118 5.78973 7.52065 5.5 8.25 5.5H24.75C25.4793 5.5 26.1788 5.78973 26.6945 6.30546C27.2103 6.82118 27.5 7.52065 27.5 8.25V24.75C27.5 25.4793 27.2103 26.1788 26.6945 26.6945C26.1788 27.2103 25.4793 27.5 24.75 27.5H8.25C7.52065 27.5 6.82118 27.2103 6.30546 26.6945C5.78973 26.1788 5.5 25.4793 5.5 24.75V8.25Z" stroke="#008ac6" stroke-width="2" stroke-linecap="round" stroke-linejoin="round"/>
</svg>
