<svg width="24" height="24" viewBox="0 0 24 24" fill="none" xmlns="http://www.w3.org/2000/svg">
<path d="M4.615 19C4.155 19 3.771 18.846 3.463 18.538C3.15433 18.2293 3 17.845 3 17.385V6.615C3 6.155 3.15433 5.771 3.463 5.463C3.771 5.15433 4.155 5 4.615 5H19.385C19.845 5 20.229 5.15433 20.537 5.463C20.8457 5.771 21 6.155 21 6.615V17.385C21 17.845 20.846 18.229 20.538 18.537C20.2293 18.8457 19.845 19 19.385 19H4.615ZM4.615 18H19.385C19.5383 18 19.6793 17.936 19.808 17.808C19.936 17.6793 20 17.5383 20 17.385V8H4V17.385C4 17.5383 4.064 17.6793 4.192 17.808C4.32067 17.936 4.46167 18 4.615 18ZM10.95 15.82L8.092 12.962L8.812 12.242L10.95 14.381L15.188 10.142L15.908 10.862L10.95 15.82ZM4.615 18H4V6H4.615C4.46167 6 4.32067 6.064 4.192 6.192C4.064 6.32067 4 6.46167 4 6.615V17.385C4 17.5383 4.064 17.6793 4.192 17.808C4.32067 17.936 4.46167 18 4.615 18Z" fill="black"/>
</svg>
