<svg width="24" height="24" viewBox="0 0 24 24" fill="none" xmlns="http://www.w3.org/2000/svg">
<path d="M13.023 16.104L14.9 14.662L16.777 16.104L16.081 13.774L17.977 12.231H15.647L14.9 9.95L14.154 12.23H11.824L13.719 13.773L13.023 16.104ZM4.615 19C4.155 19 3.771 18.846 3.463 18.538C3.15433 18.2293 3 17.845 3 17.385V6.615C3 6.155 3.15433 5.771 3.463 5.463C3.771 5.15433 4.155 5 4.615 5H9.596L11.596 7H19.385C19.845 7 20.229 7.15433 20.537 7.463C20.8457 7.771 21 8.155 21 8.615V17.385C21 17.845 20.846 18.229 20.538 18.537C20.2293 18.8457 19.845 19 19.385 19H4.615ZM4.615 18H19.385C19.5643 18 19.7117 17.9423 19.827 17.827C19.9423 17.7117 20 17.5643 20 17.385V8.615C20 8.43567 19.9423 8.28833 19.827 8.173C19.7117 8.05767 19.5643 8 19.385 8H11.195L9.195 6H4.615C4.43567 6 4.28833 6.05767 4.173 6.173C4.05767 6.28833 4 6.43567 4 6.615V17.385C4 17.5643 4.05767 17.7117 4.173 17.827C4.28833 17.9423 4.43567 18 4.615 18Z" fill="black"/>
</svg>
