<svg width="31" height="31" viewBox="0 0 31 31" fill="none" xmlns="http://www.w3.org/2000/svg">
<path d="M3.875 7.75V23.25H17.205C16.9305 22.4164 16.791 21.5443 16.7917 20.6667H9.04167C9.04167 19.9815 8.7695 19.3244 8.28503 18.84C7.80056 18.3555 7.14348 18.0833 6.45833 18.0833V12.9167C7.89208 12.9167 9.04167 11.7671 9.04167 10.3333H21.9583C21.9583 11.0185 22.2305 11.6756 22.715 12.16C23.1994 12.6445 23.8565 12.9167 24.5417 12.9167V12.9942C25.4071 12.9942 26.2725 13.1492 27.125 13.4333V7.75H3.875ZM15.5 11.625C13.3042 11.6637 11.625 13.3042 11.625 15.5C11.625 17.6958 13.3042 19.2975 15.5 19.375C15.9908 19.375 16.4946 19.2717 16.9725 19.0779C17.3212 17.6571 17.9025 16.3137 19.3363 14.9962C19.1812 13.2783 17.5538 11.5862 15.5 11.625ZM24.5417 14.2083L27.4479 17.1146L24.5417 20.0208V18.0833C22.1521 18.0833 20.5892 20.615 21.6483 22.7592L20.2404 24.1671C17.9671 20.7312 20.4212 16.1458 24.5417 16.1458V14.2083ZM24.5417 28.4167L21.6354 25.5104L24.5417 22.6042V24.5417C26.9312 24.5417 28.4942 22.01 27.435 19.8658L28.8429 18.4579C31.1162 21.8937 28.6621 26.4792 24.5417 26.4792V28.4167Z" fill="black"/>
</svg>
