<svg xmlns="http://www.w3.org/2000/svg" xmlns:xlink="http://www.w3.org/1999/xlink" width="48" viewBox="0 0 36 36.000001" height="48" preserveAspectRatio="xMidYMid meet"><defs><clipPath id="428339050a"><path d="M 2.238281 0 L 33.617188 0 L 33.617188 35.027344 L 2.238281 35.027344 Z M 2.238281 0 " clip-rule="nonzero"></path></clipPath></defs><g clip-path="url(#428339050a)"><path fill="#5eb1e6" d="M 32.460938 5.347656 L 29.011719 30.433594 C 28.964844 30.761719 28.796875 31.058594 28.53125 31.257812 C 28.269531 31.460938 27.941406 31.546875 27.613281 31.5 L 26.703125 31.371094 L 26.703125 7.449219 C 26.703125 6.210938 25.703125 5.203125 24.476562 5.203125 L 9.785156 5.203125 L 10.191406 2.222656 C 10.285156 1.542969 10.914062 1.0625 11.589844 1.15625 L 31.402344 3.9375 C 31.730469 3.980469 32.023438 4.152344 32.222656 4.421875 C 32.421875 4.6875 32.503906 5.015625 32.460938 5.347656 Z M 25.710938 32.777344 C 25.710938 33.46875 25.15625 34.027344 24.476562 34.027344 L 4.46875 34.027344 C 3.789062 34.027344 3.230469 33.46875 3.230469 32.777344 L 3.230469 7.449219 C 3.230469 6.761719 3.789062 6.199219 4.46875 6.199219 L 24.476562 6.199219 C 25.15625 6.199219 25.710938 6.761719 25.710938 7.449219 Z M 31.539062 2.945312 L 11.726562 0.167969 C 10.507812 0 9.382812 0.859375 9.214844 2.085938 L 8.785156 5.203125 L 4.46875 5.203125 C 3.242188 5.203125 2.242188 6.210938 2.242188 7.449219 L 2.242188 32.777344 C 2.242188 34.019531 3.242188 35.027344 4.46875 35.027344 L 24.476562 35.027344 C 25.703125 35.027344 26.703125 34.019531 26.703125 32.777344 L 26.703125 32.378906 L 27.476562 32.488281 C 27.582031 32.503906 27.683594 32.507812 27.785156 32.507812 C 28.878906 32.507812 29.835938 31.695312 29.992188 30.570312 L 33.4375 5.484375 C 33.609375 4.253906 32.753906 3.117188 31.539062 2.945312 " fill-opacity="1" fill-rule="nonzero"></path></g><path fill="#5eb1e6" d="M 14.472656 9.539062 C 17.539062 9.539062 20.035156 12.0625 20.035156 15.160156 C 20.035156 16.238281 19.734375 17.246094 19.210938 18.101562 C 18.578125 16.875 17.519531 16.03125 16.890625 15.609375 C 17.175781 15.15625 17.34375 14.621094 17.34375 14.046875 C 17.34375 12.445312 16.058594 11.144531 14.472656 11.144531 C 12.886719 11.144531 11.601562 12.445312 11.601562 14.046875 C 11.601562 14.621094 11.765625 15.15625 12.054688 15.609375 C 11.425781 16.03125 10.363281 16.875 9.734375 18.101562 C 9.210938 17.246094 8.90625 16.238281 8.90625 15.160156 C 8.90625 12.0625 11.40625 9.539062 14.472656 9.539062 Z M 14.472656 15.949219 C 13.433594 15.949219 12.589844 15.09375 12.589844 14.046875 C 12.589844 12.996094 13.433594 12.144531 14.472656 12.144531 C 15.511719 12.144531 16.355469 12.996094 16.355469 14.046875 C 16.355469 15.09375 15.511719 15.949219 14.472656 15.949219 Z M 14.472656 20.78125 C 12.875 20.78125 11.433594 20.09375 10.417969 19.003906 C 10.914062 17.644531 12.171875 16.714844 12.734375 16.355469 C 13.21875 16.726562 13.820312 16.945312 14.472656 16.945312 C 15.125 16.945312 15.726562 16.726562 16.210938 16.355469 C 16.773438 16.714844 18.03125 17.644531 18.527344 19.003906 C 17.511719 20.09375 16.070312 20.78125 14.472656 20.78125 Z M 9.527344 19.496094 C 10.730469 20.890625 12.5 21.777344 14.472656 21.777344 C 16.445312 21.777344 18.214844 20.890625 19.417969 19.496094 C 19.449219 19.46875 19.476562 19.4375 19.496094 19.402344 C 20.449219 18.253906 21.027344 16.773438 21.027344 15.160156 C 21.027344 11.511719 18.085938 8.542969 14.472656 8.542969 C 10.859375 8.542969 7.917969 11.511719 7.917969 15.160156 C 7.917969 16.773438 8.496094 18.253906 9.445312 19.402344 C 9.46875 19.4375 9.496094 19.46875 9.527344 19.496094 " fill-opacity="1" fill-rule="nonzero"></path><path fill="#5eb1e6" d="M 23.164062 24.0625 L 19.085938 24.0625 C 18.8125 24.0625 18.59375 24.285156 18.59375 24.5625 C 18.59375 24.835938 18.8125 25.058594 19.085938 25.058594 L 23.164062 25.058594 C 23.4375 25.058594 23.65625 24.835938 23.65625 24.5625 C 23.65625 24.285156 23.4375 24.0625 23.164062 24.0625 " fill-opacity="1" fill-rule="nonzero"></path><path fill="#5eb1e6" d="M 5.78125 25.058594 L 15.796875 25.058594 C 16.070312 25.058594 16.289062 24.835938 16.289062 24.5625 C 16.289062 24.285156 16.070312 24.0625 15.796875 24.0625 L 5.78125 24.0625 C 5.507812 24.0625 5.289062 24.285156 5.289062 24.5625 C 5.289062 24.835938 5.507812 25.058594 5.78125 25.058594 " fill-opacity="1" fill-rule="nonzero"></path><path fill="#5eb1e6" d="M 23.164062 27.054688 L 5.78125 27.054688 C 5.507812 27.054688 5.289062 27.277344 5.289062 27.554688 C 5.289062 27.828125 5.507812 28.050781 5.78125 28.050781 L 23.164062 28.050781 C 23.4375 28.050781 23.65625 27.828125 23.65625 27.554688 C 23.65625 27.277344 23.4375 27.054688 23.164062 27.054688 " fill-opacity="1" fill-rule="nonzero"></path><path fill="#5eb1e6" d="M 23.164062 30.046875 L 13.015625 30.046875 C 12.742188 30.046875 12.523438 30.269531 12.523438 30.546875 C 12.523438 30.820312 12.742188 31.046875 13.015625 31.046875 L 23.164062 31.046875 C 23.4375 31.046875 23.65625 30.820312 23.65625 30.546875 C 23.65625 30.269531 23.4375 30.046875 23.164062 30.046875 " fill-opacity="1" fill-rule="nonzero"></path><path fill="#5eb1e6" d="M 9.675781 30.046875 L 5.78125 30.046875 C 5.507812 30.046875 5.289062 30.269531 5.289062 30.546875 C 5.289062 30.820312 5.507812 31.046875 5.78125 31.046875 L 9.675781 31.046875 C 9.949219 31.046875 10.167969 30.820312 10.167969 30.546875 C 10.167969 30.269531 9.949219 30.046875 9.675781 30.046875 " fill-opacity="1" fill-rule="nonzero"></path></svg>