<svg width="25" height="25" viewBox="0 0 25 25" fill="none" xmlns="http://www.w3.org/2000/svg">
<g clip-path="url(#clip0_15_16600)">
<path d="M23.4375 2.341L17.182 2.34103V0.783997C17.182 0.352356 16.8324 0.00274658 16.4008 0.00274658C15.9691 0.00274658 15.6195 0.352356 15.6195 0.783997V2.34064H9.36953V0.783997C9.36953 0.352356 9.01992 0.00274658 8.58828 0.00274658C8.15664 0.00274658 7.80703 0.352356 7.80703 0.783997V2.34064H1.5625C0.699609 2.34064 0 3.04025 0 3.90314V23.4344C0 24.2973 0.699609 24.9969 1.5625 24.9969H23.4375C24.3004 24.9969 25 24.2973 25 23.4344V3.90314C25 3.04061 24.3004 2.341 23.4375 2.341ZM23.4375 23.4344H1.5625V3.90314H7.80703V4.69025C7.80703 5.12186 8.15664 5.4715 8.58828 5.4715C9.01992 5.4715 9.36953 5.12186 9.36953 4.69025V3.90353H15.6195V4.69064C15.6195 5.12228 15.9691 5.47189 16.4008 5.47189C16.8324 5.47189 17.182 5.12228 17.182 4.69064V3.90353H23.4375V23.4344ZM17.9688 12.4973H19.5312C19.9625 12.4973 20.3125 12.1473 20.3125 11.716V10.1535C20.3125 9.72225 19.9625 9.37225 19.5312 9.37225H17.9688C17.5375 9.37225 17.1875 9.72225 17.1875 10.1535V11.716C17.1875 12.1473 17.5375 12.4973 17.9688 12.4973ZM17.9688 18.7469H19.5312C19.9625 18.7469 20.3125 18.3973 20.3125 17.9656V16.4031C20.3125 15.9719 19.9625 15.6219 19.5312 15.6219H17.9688C17.5375 15.6219 17.1875 15.9719 17.1875 16.4031V17.9656C17.1875 18.3976 17.5375 18.7469 17.9688 18.7469ZM13.2812 15.6219H11.7188C11.2875 15.6219 10.9375 15.9719 10.9375 16.4031V17.9656C10.9375 18.3973 11.2875 18.7469 11.7188 18.7469H13.2812C13.7125 18.7469 14.0625 18.3973 14.0625 17.9656V16.4031C14.0625 15.9723 13.7125 15.6219 13.2812 15.6219ZM13.2812 9.37225H11.7188C11.2875 9.37225 10.9375 9.72225 10.9375 10.1535V11.716C10.9375 12.1473 11.2875 12.4973 11.7188 12.4973H13.2812C13.7125 12.4973 14.0625 12.1473 14.0625 11.716V10.1535C14.0625 9.72186 13.7125 9.37225 13.2812 9.37225ZM7.03125 9.37225H5.46875C5.0375 9.37225 4.6875 9.72225 4.6875 10.1535V11.716C4.6875 12.1473 5.0375 12.4973 5.46875 12.4973H7.03125C7.4625 12.4973 7.8125 12.1473 7.8125 11.716V10.1535C7.8125 9.72186 7.4625 9.37225 7.03125 9.37225ZM7.03125 15.6219H5.46875C5.0375 15.6219 4.6875 15.9719 4.6875 16.4031V17.9656C4.6875 18.3973 5.0375 18.7469 5.46875 18.7469H7.03125C7.4625 18.7469 7.8125 18.3973 7.8125 17.9656V16.4031C7.8125 15.9723 7.4625 15.6219 7.03125 15.6219Z" fill="#008ac6"/>
</g>
<defs>
<clipPath id="clip0_15_16600">
<rect width="25" height="25" fill="#008ac6"/>
</clipPath>
</defs>
</svg>
