<svg width="14" height="14" viewBox="0 0 14 14" fill="none" xmlns="http://www.w3.org/2000/svg">
<g clip-path="url(#clip0_14_16567)">
<path d="M7.36 13.43C7.12832 13.5194 6.87168 13.5194 6.64 13.43C4.83069 12.7206 3.27713 11.4824 2.18188 9.877C1.08664 8.2716 0.500536 6.37342 0.5 4.43V1.5C0.5 1.23478 0.605357 0.98043 0.792893 0.792893C0.98043 0.605357 1.23478 0.5 1.5 0.5H12.5C12.7652 0.5 13.0196 0.605357 13.2071 0.792893C13.3946 0.98043 13.5 1.23478 13.5 1.5V4.42C13.5015 6.36513 12.9163 8.26549 11.8209 9.87287C10.7256 11.4803 9.17089 12.7199 7.36 13.43Z" stroke="#008ac6" stroke-linecap="round" stroke-linejoin="round"/>
<path d="M2.837 10.73C3.29313 10.0438 3.91195 9.48102 4.6383 9.09193C5.36466 8.70284 6.17599 8.49949 7 8.5C8.737 8.5 10.267 9.386 11.164 10.73M7 7C7.29547 7 7.58805 6.9418 7.86104 6.82873C8.13402 6.71566 8.38206 6.54992 8.59099 6.34099C8.79992 6.13206 8.96565 5.88402 9.07873 5.61104C9.1918 5.33806 9.25 5.04547 9.25 4.75C9.25 4.45453 9.1918 4.16194 9.07873 3.88896C8.96565 3.61598 8.79992 3.36794 8.59099 3.15901C8.38206 2.95008 8.13402 2.78434 7.86104 2.67127C7.58805 2.5582 7.29547 2.5 7 2.5C6.40326 2.5 5.83096 2.73705 5.40901 3.15901C4.98705 3.58097 4.75 4.15326 4.75 4.75C4.75 5.34674 4.98705 5.91903 5.40901 6.34099C5.83096 6.76295 6.40326 7 7 7Z" stroke="#008ac6" stroke-linecap="round" stroke-linejoin="round"/>
</g>
<defs>
<clipPath id="clip0_14_16567">
<rect width="14" height="14" fill="#008ac6"/>
</clipPath>
</defs>
</svg>
