<svg xmlns="http://www.w3.org/2000/svg" xmlns:xlink="http://www.w3.org/1999/xlink" width="48" viewBox="0 0 36 36.000001" height="48" preserveAspectRatio="xMidYMid meet"><defs><clipPath id="760b781d87"><path d="M 0.488281 0 L 35.511719 0 L 35.511719 34.296875 L 0.488281 34.296875 Z M 0.488281 0 " clip-rule="nonzero"></path></clipPath></defs><path fill="#0097b2" d="M 17.660156 26.605469 C 17.433594 26.777344 17.378906 27.171875 17.546875 27.398438 C 17.660156 27.511719 17.832031 27.625 18 27.625 C 18.113281 27.625 18.226562 27.566406 18.339844 27.511719 C 18.566406 27.339844 18.621094 26.945312 18.453125 26.71875 C 18.226562 26.492188 17.886719 26.4375 17.660156 26.605469 Z M 17.660156 26.605469 " fill-opacity="1" fill-rule="nonzero"></path><g clip-path="url(#760b781d87)"><path fill="#0097b2" d="M 32.914062 6.382812 L 26.078125 6.382812 C 26.078125 5.648438 26.078125 4.914062 26.136719 4.066406 C 26.25 2.539062 25.457031 1.917969 24.949219 1.636719 C 24.15625 1.242188 23.027344 1.296875 22.179688 1.804688 C 21.105469 0.730469 19.636719 0.0546875 18 0.0546875 C 14.835938 0.0546875 12.238281 2.539062 12.238281 5.648438 C 12.238281 5.871094 12.238281 6.15625 12.238281 6.382812 L 3.085938 6.382812 C 1.671875 6.382812 0.488281 7.566406 0.488281 8.980469 L 0.488281 26.777344 C 0.488281 28.1875 1.671875 29.375 3.085938 29.375 L 13.199219 29.375 L 11.445312 33.273438 L 9.582031 33.273438 C 9.242188 33.273438 9.015625 33.5 9.015625 33.839844 C 9.015625 34.175781 9.242188 34.402344 9.582031 34.402344 L 26.417969 34.402344 C 26.757812 34.402344 26.984375 34.175781 26.984375 33.839844 C 26.984375 33.5 26.757812 33.273438 26.417969 33.273438 L 24.554688 33.273438 L 22.800781 29.375 L 32.914062 29.375 C 34.328125 29.375 35.511719 28.1875 35.511719 26.777344 L 35.511719 8.980469 C 35.511719 7.511719 34.328125 6.382812 32.914062 6.382812 Z M 24.496094 2.652344 C 24.890625 2.878906 25.117188 3.332031 25.0625 3.953125 C 24.835938 7.511719 25.0625 10.054688 26.925781 12.597656 C 25.910156 12.484375 24.890625 12.085938 24.15625 11.464844 C 23.761719 11.128906 23.253906 10.5625 23.140625 9.828125 C 23.59375 8.699219 23.820312 7.285156 23.820312 5.648438 C 23.820312 4.574219 23.480469 3.554688 22.972656 2.710938 C 23.421875 2.484375 24.046875 2.484375 24.496094 2.652344 Z M 18 1.183594 C 20.542969 1.183594 22.6875 3.160156 22.6875 5.648438 C 22.6875 5.703125 22.6875 5.761719 22.6875 5.816406 C 21.671875 5.535156 21.164062 4.800781 20.597656 3.667969 C 20.542969 3.5 20.371094 3.386719 20.203125 3.386719 C 20.035156 3.332031 19.863281 3.386719 19.695312 3.554688 C 17.660156 5.535156 15.402344 6.269531 13.367188 5.589844 C 13.425781 3.160156 15.457031 1.183594 18 1.183594 Z M 21.050781 23.613281 L 21.839844 23.613281 C 22.179688 23.613281 22.40625 23.386719 22.40625 23.046875 C 22.40625 22.707031 22.179688 22.484375 21.839844 22.484375 L 21.617188 22.484375 L 21.617188 19.941406 C 21.617188 19.207031 22.179688 18.640625 22.914062 18.640625 C 23.648438 18.640625 24.214844 19.207031 24.214844 19.941406 L 24.214844 22.484375 L 23.988281 22.484375 C 23.648438 22.484375 23.421875 22.707031 23.421875 23.046875 C 23.421875 23.386719 23.648438 23.613281 23.988281 23.613281 L 24.78125 23.613281 C 25.117188 23.613281 25.34375 23.386719 25.34375 23.046875 L 25.34375 19.941406 C 25.34375 18.808594 24.554688 17.851562 23.480469 17.625 L 23.480469 15.703125 C 25.289062 16.4375 26.585938 18.246094 26.585938 20.335938 L 26.585938 24.855469 L 9.46875 24.855469 L 9.46875 20.335938 C 9.46875 18.1875 10.824219 16.324219 12.800781 15.648438 L 12.800781 17.792969 C 11.898438 18.019531 11.21875 18.867188 11.21875 19.882812 C 11.21875 21.070312 12.179688 22.03125 13.367188 22.03125 C 14.554688 22.03125 15.515625 21.070312 15.515625 19.882812 C 15.515625 18.867188 14.835938 18.074219 13.933594 17.792969 L 13.933594 15.308594 C 14.101562 15.308594 14.328125 15.25 14.496094 15.25 L 14.894531 15.25 L 17.433594 21.691406 C 17.546875 21.917969 17.71875 22.03125 17.945312 22.03125 C 18.167969 22.03125 18.394531 21.859375 18.453125 21.691406 L 20.996094 15.25 L 21.390625 15.25 C 21.671875 15.25 21.953125 15.308594 22.238281 15.308594 L 22.238281 17.511719 C 21.164062 17.792969 20.371094 18.699219 20.371094 19.828125 L 20.371094 22.933594 C 20.484375 23.328125 20.710938 23.613281 21.050781 23.613281 Z M 13.367188 18.867188 C 13.933594 18.867188 14.382812 19.320312 14.382812 19.882812 C 14.382812 20.449219 13.933594 20.902344 13.367188 20.902344 C 12.800781 20.902344 12.351562 20.449219 12.351562 19.882812 C 12.351562 19.320312 12.800781 18.867188 13.367188 18.867188 Z M 16.417969 15.929688 L 15.910156 14.628906 L 15.910156 13.386719 C 16.585938 13.726562 17.265625 13.894531 18 13.894531 C 18.734375 13.894531 19.414062 13.726562 20.089844 13.386719 L 20.089844 14.628906 L 19.582031 15.929688 Z M 19.128906 17.058594 L 18 19.941406 L 16.871094 17.058594 Z M 18 12.765625 C 15.910156 12.765625 13.707031 10.84375 13.367188 6.777344 C 15.515625 7.34375 17.832031 6.664062 19.921875 4.855469 C 20.484375 5.816406 21.277344 6.664062 22.574219 6.945312 C 22.464844 7.964844 22.238281 8.8125 21.953125 9.601562 C 21.105469 11.75 19.523438 12.765625 18 12.765625 Z M 1.617188 8.980469 C 1.617188 8.1875 2.292969 7.511719 3.085938 7.511719 L 12.351562 7.511719 C 12.578125 9.207031 13.140625 10.675781 13.988281 11.75 C 14.214844 12.085938 14.496094 12.371094 14.78125 12.597656 L 14.78125 14.175781 L 14.554688 14.175781 C 11.164062 14.175781 8.394531 16.945312 8.394531 20.335938 L 8.394531 24.855469 L 1.617188 24.855469 Z M 23.3125 33.273438 L 12.632812 33.273438 L 14.382812 29.375 L 21.503906 29.375 Z M 34.382812 26.71875 C 34.382812 27.511719 33.707031 28.1875 32.914062 28.1875 L 3.085938 28.1875 C 2.292969 28.1875 1.617188 27.511719 1.617188 26.71875 L 1.617188 25.929688 L 34.382812 25.929688 Z M 34.382812 24.796875 L 27.660156 24.796875 L 27.660156 20.277344 C 27.660156 16.890625 24.890625 14.121094 21.503906 14.121094 L 21.277344 14.121094 L 21.277344 12.539062 C 21.730469 12.144531 22.125 11.691406 22.464844 11.183594 C 22.6875 11.578125 23.027344 11.972656 23.421875 12.3125 C 24.496094 13.21875 26.078125 13.726562 27.605469 13.726562 C 27.832031 13.726562 28 13.726562 28.226562 13.667969 C 28.453125 13.667969 28.621094 13.5 28.675781 13.332031 C 28.734375 13.160156 28.734375 12.878906 28.566406 12.765625 C 27.039062 11.070312 26.359375 9.433594 26.191406 7.398438 L 32.972656 7.398438 C 33.761719 7.398438 34.441406 8.078125 34.441406 8.867188 L 34.441406 24.796875 Z M 34.382812 24.796875 " fill-opacity="1" fill-rule="nonzero"></path></g><path fill="#0097b2" d="M 18.28125 10.28125 C 18.113281 10.390625 17.945312 10.390625 17.71875 10.28125 C 17.433594 10.167969 17.097656 10.28125 16.984375 10.5625 C 16.871094 10.84375 16.984375 11.183594 17.265625 11.296875 C 17.492188 11.410156 17.773438 11.464844 18 11.464844 C 18.226562 11.464844 18.507812 11.410156 18.734375 11.296875 C 19.015625 11.183594 19.128906 10.84375 19.015625 10.5625 C 18.902344 10.28125 18.566406 10.167969 18.28125 10.28125 Z M 18.28125 10.28125 " fill-opacity="1" fill-rule="nonzero"></path><path fill="#0097b2" d="M 16.25 7.34375 C 15.910156 7.34375 15.683594 7.566406 15.683594 7.90625 L 15.683594 8.078125 C 15.683594 8.414062 15.910156 8.640625 16.25 8.640625 C 16.585938 8.640625 16.8125 8.414062 16.8125 8.078125 L 16.8125 7.90625 C 16.8125 7.625 16.53125 7.34375 16.25 7.34375 Z M 16.25 7.34375 " fill-opacity="1" fill-rule="nonzero"></path><path fill="#0097b2" d="M 19.75 7.34375 C 19.414062 7.34375 19.1875 7.566406 19.1875 7.90625 L 19.1875 8.078125 C 19.1875 8.414062 19.414062 8.640625 19.75 8.640625 C 20.089844 8.640625 20.316406 8.414062 20.316406 8.078125 L 20.316406 7.90625 C 20.316406 7.625 20.089844 7.34375 19.75 7.34375 Z M 19.75 7.34375 " fill-opacity="1" fill-rule="nonzero"></path></svg>