<svg xmlns="http://www.w3.org/2000/svg" xmlns:xlink="http://www.w3.org/1999/xlink" width="48" viewBox="0 0 36 36.000001" height="48" preserveAspectRatio="xMidYMid meet"><defs><clipPath id="878e2a8d1b"><path d="M 0.488281 22 L 6 22 L 6 28 L 0.488281 28 Z M 0.488281 22 " clip-rule="nonzero"></path></clipPath><clipPath id="49444cc848"><path d="M 1 0 L 35.511719 0 L 35.511719 35.027344 L 1 35.027344 Z M 1 0 " clip-rule="nonzero"></path></clipPath><clipPath id="a5aecb3f11"><path d="M 0.488281 15 L 2 15 L 2 21 L 0.488281 21 Z M 0.488281 15 " clip-rule="nonzero"></path></clipPath></defs><g clip-path="url(#878e2a8d1b)"><path fill="#008ed3" d="M 5.742188 23.625 L 5.285156 24.085938 L 1.957031 27.445312 C 1.796875 27.605469 1.59375 27.683594 1.386719 27.683594 C 1.183594 27.683594 0.976562 27.605469 0.820312 27.445312 C 0.507812 27.128906 0.507812 26.617188 0.820312 26.300781 L 4.625 22.460938 C 4.941406 22.902344 5.316406 23.296875 5.742188 23.625 Z M 5.742188 23.625 " fill-opacity="1" fill-rule="nonzero"></path></g><path fill="#008ed3" d="M 14.605469 19.226562 C 14.605469 22.292969 12.140625 24.78125 9.101562 24.78125 C 7.835938 24.78125 6.671875 24.351562 5.742188 23.625 C 5.316406 23.296875 4.941406 22.902344 4.625 22.460938 C 3.976562 21.550781 3.59375 20.433594 3.59375 19.226562 C 3.59375 16.160156 6.058594 13.671875 9.101562 13.671875 C 12.140625 13.671875 14.605469 16.160156 14.605469 19.226562 Z M 14.605469 19.226562 " fill-opacity="1" fill-rule="nonzero"></path><path fill="#bdebff" d="M 11.863281 21.996094 C 11.15625 22.714844 10.175781 23.160156 9.101562 23.160156 C 6.949219 23.160156 5.203125 21.394531 5.203125 19.226562 C 5.203125 18.140625 5.640625 17.152344 6.351562 16.4375 Z M 11.863281 21.996094 " fill-opacity="1" fill-rule="nonzero"></path><path fill="#ffffff" d="M 12.996094 19.226562 C 12.996094 20.308594 12.5625 21.285156 11.863281 21.996094 L 6.351562 16.4375 C 7.058594 15.730469 8.027344 15.292969 9.101562 15.292969 C 11.25 15.292969 12.996094 17.058594 12.996094 19.226562 Z M 12.996094 19.226562 " fill-opacity="1" fill-rule="nonzero"></path><path fill="#0059cd" d="M 4.625 22.460938 L 4.167969 22.921875 C 4.488281 23.359375 4.867188 23.75 5.285156 24.085938 L 5.742188 23.625 C 5.316406 23.296875 4.941406 22.902344 4.625 22.460938 Z M 4.625 22.460938 " fill-opacity="1" fill-rule="nonzero"></path><g clip-path="url(#49444cc848)"><path fill="#69d6e7" d="M 18.410156 0.113281 C 14.449219 0.00390625 10.542969 1.277344 7.40625 3.699219 C 4.3125 6.089844 2.085938 9.492188 1.140625 13.28125 C 1.078125 13.519531 1.222656 13.761719 1.460938 13.824219 C 1.695312 13.882812 1.9375 13.738281 1.996094 13.5 C 2.894531 9.90625 5.007812 6.675781 7.941406 4.40625 C 10.917969 2.105469 14.628906 0.902344 18.382812 1.003906 C 22.769531 1.128906 26.847656 2.96875 29.859375 6.1875 C 32.875 9.402344 34.464844 13.609375 34.34375 18.035156 C 34.089844 27.167969 26.515625 34.394531 17.460938 34.132812 C 13.582031 34.023438 9.925781 32.558594 7.042969 29.984375 L 7.628906 29.363281 C 7.757812 29.226562 7.671875 28.996094 7.480469 28.980469 L 5.519531 28.851562 C 5.378906 28.84375 5.265625 28.964844 5.28125 29.105469 L 5.511719 31.074219 C 5.535156 31.265625 5.769531 31.34375 5.898438 31.203125 L 6.4375 30.632812 C 9.476562 33.359375 13.339844 34.910156 17.4375 35.023438 C 17.601562 35.03125 17.765625 35.03125 17.929688 35.03125 C 27.25 35.03125 34.960938 27.519531 35.226562 18.058594 C 35.496094 8.433594 27.949219 0.386719 18.410156 0.113281 Z M 18.410156 0.113281 " fill-opacity="1" fill-rule="nonzero"></path></g><g clip-path="url(#a5aecb3f11)"><path fill="#69d6e7" d="M 1.503906 17.105469 C 1.511719 16.71875 1.539062 16.328125 1.574219 15.941406 C 1.597656 15.695312 1.421875 15.476562 1.179688 15.453125 C 0.933594 15.429688 0.71875 15.609375 0.695312 15.851562 C 0.65625 16.261719 0.632812 16.671875 0.621094 17.078125 C 0.59375 17.960938 0.636719 18.847656 0.742188 19.714844 C 0.769531 19.941406 0.960938 20.105469 1.179688 20.105469 C 1.199219 20.105469 1.214844 20.105469 1.234375 20.101562 C 1.476562 20.070312 1.648438 19.851562 1.617188 19.605469 C 1.519531 18.78125 1.480469 17.941406 1.503906 17.105469 Z M 1.503906 17.105469 " fill-opacity="1" fill-rule="nonzero"></path></g><path fill="#ff9859" d="M 23.320312 30.636719 L 17.546875 30.636719 C 17.269531 30.636719 17.046875 30.410156 17.046875 30.132812 L 17.046875 20.035156 C 17.046875 19.757812 17.269531 19.53125 17.546875 19.53125 L 23.320312 19.53125 C 23.59375 19.53125 23.816406 19.757812 23.816406 20.035156 L 23.816406 30.132812 C 23.816406 30.410156 23.59375 30.636719 23.320312 30.636719 Z M 23.320312 30.636719 " fill-opacity="1" fill-rule="nonzero"></path><path fill="#ffffff" d="M 22.933594 20.636719 L 22.933594 22.578125 L 21.941406 22.578125 C 21.589844 22.578125 21.308594 22.292969 21.308594 21.9375 L 21.308594 20.421875 L 22.722656 20.421875 C 22.839844 20.421875 22.933594 20.519531 22.933594 20.636719 Z M 22.933594 20.636719 " fill-opacity="1" fill-rule="nonzero"></path><path fill="#ffffff" d="M 21.941406 23.46875 L 22.933594 23.46875 L 22.933594 28.640625 C 22.933594 28.757812 22.839844 28.851562 22.722656 28.851562 L 18.144531 28.851562 C 18.027344 28.851562 17.929688 28.757812 17.929688 28.640625 L 17.929688 20.636719 C 17.929688 20.519531 18.027344 20.421875 18.144531 20.421875 L 20.421875 20.421875 L 20.421875 21.9375 C 20.421875 22.785156 21.105469 23.46875 21.941406 23.46875 Z M 21.941406 23.46875 " fill-opacity="1" fill-rule="nonzero"></path><path fill="#ffffff" d="M 20.75 29.933594 C 20.75 30.023438 20.71875 30.097656 20.65625 30.160156 C 20.59375 30.222656 20.519531 30.253906 20.433594 30.253906 C 20.34375 30.253906 20.269531 30.222656 20.207031 30.160156 C 20.148438 30.097656 20.117188 30.023438 20.117188 29.933594 C 20.117188 29.847656 20.148438 29.769531 20.207031 29.707031 C 20.269531 29.644531 20.34375 29.617188 20.433594 29.617188 C 20.519531 29.617188 20.59375 29.644531 20.65625 29.707031 C 20.71875 29.769531 20.75 29.847656 20.75 29.933594 Z M 20.75 29.933594 " fill-opacity="1" fill-rule="nonzero"></path><path fill="#ff9859" d="M 23.109375 5.136719 L 23.109375 11.503906 C 23.109375 11.695312 22.953125 11.847656 22.761719 11.847656 L 13.125 11.847656 C 12.9375 11.847656 12.78125 11.695312 12.78125 11.503906 L 12.78125 5.136719 C 12.78125 5.03125 12.828125 4.9375 12.902344 4.871094 L 17.488281 9.078125 C 17.617188 9.195312 17.78125 9.253906 17.945312 9.253906 C 18.109375 9.253906 18.269531 9.195312 18.402344 9.078125 L 22.984375 4.871094 C 23.0625 4.9375 23.109375 5.03125 23.109375 5.136719 Z M 23.109375 5.136719 " fill-opacity="1" fill-rule="nonzero"></path><path fill="#ff7d35" d="M 23.109375 5.136719 L 23.109375 5.964844 L 19.882812 8.921875 L 21.054688 9.996094 L 21.742188 10.632812 L 22.984375 11.773438 C 22.925781 11.824219 22.847656 11.855469 22.761719 11.855469 L 13.125 11.855469 C 13.042969 11.855469 12.960938 11.824219 12.902344 11.773438 L 16.007812 8.925781 L 12.78125 5.964844 L 12.78125 5.136719 C 12.78125 5.117188 12.785156 5.097656 12.789062 5.078125 C 12.800781 4.996094 12.84375 4.925781 12.902344 4.871094 L 16.664062 8.320312 L 17.488281 9.078125 C 17.746094 9.316406 18.140625 9.316406 18.402344 9.078125 L 19.226562 8.320312 L 22.984375 4.871094 C 23.007812 4.886719 23.023438 4.910156 23.039062 4.933594 C 23.082031 4.988281 23.109375 5.058594 23.109375 5.136719 Z M 23.109375 5.136719 " fill-opacity="1" fill-rule="nonzero"></path><path fill="#ff9859" d="M 22.984375 4.871094 L 19.226562 8.320312 L 18.402344 9.078125 C 18.140625 9.316406 17.746094 9.316406 17.488281 9.078125 L 16.664062 8.320312 L 12.902344 4.871094 C 12.960938 4.816406 13.039062 4.789062 13.125 4.789062 L 22.761719 4.789062 C 22.847656 4.789062 22.925781 4.816406 22.984375 4.871094 Z M 22.984375 4.871094 " fill-opacity="1" fill-rule="nonzero"></path><path fill="#ff9859" d="M 29.507812 22.578125 L 21.941406 22.578125 C 21.589844 22.578125 21.308594 22.292969 21.308594 21.9375 L 21.308594 11.234375 C 21.308594 10.882812 21.589844 10.597656 21.941406 10.597656 L 29.507812 10.597656 C 29.859375 10.597656 30.144531 10.882812 30.144531 11.234375 L 30.144531 21.9375 C 30.144531 22.292969 29.859375 22.578125 29.507812 22.578125 Z M 29.507812 22.578125 " fill-opacity="1" fill-rule="nonzero"></path><path fill="#ffffff" d="M 28.394531 16.03125 L 23.039062 16.03125 C 22.859375 16.03125 22.71875 15.886719 22.71875 15.707031 C 22.71875 15.53125 22.859375 15.382812 23.039062 15.382812 L 28.394531 15.382812 C 28.570312 15.382812 28.714844 15.53125 28.714844 15.707031 C 28.714844 15.886719 28.570312 16.03125 28.394531 16.03125 Z M 28.394531 16.03125 " fill-opacity="1" fill-rule="nonzero"></path><path fill="#ffffff" d="M 28.394531 17.589844 L 23.039062 17.589844 C 22.859375 17.589844 22.71875 17.445312 22.71875 17.265625 C 22.71875 17.085938 22.859375 16.941406 23.039062 16.941406 L 28.394531 16.941406 C 28.570312 16.941406 28.714844 17.085938 28.714844 17.265625 C 28.714844 17.445312 28.570312 17.589844 28.394531 17.589844 Z M 28.394531 17.589844 " fill-opacity="1" fill-rule="nonzero"></path><path fill="#ff7d35" d="M 22.933594 22.578125 L 22.933594 23.46875 L 23.816406 23.46875 L 23.816406 22.578125 Z M 20.421875 20.421875 L 21.308594 20.421875 L 21.308594 19.53125 L 20.421875 19.53125 Z M 20.421875 20.421875 " fill-opacity="1" fill-rule="nonzero"></path><path fill="#ffcaac" d="M 22.933594 22.578125 L 22.933594 23.46875 L 21.941406 23.46875 C 21.105469 23.46875 20.421875 22.785156 20.421875 21.9375 L 20.421875 20.421875 L 21.308594 20.421875 L 21.308594 21.9375 C 21.308594 22.292969 21.589844 22.578125 21.941406 22.578125 Z M 22.933594 22.578125 " fill-opacity="1" fill-rule="nonzero"></path><path fill="#ff7d35" d="M 23.109375 9.707031 L 23.109375 10.597656 L 21.941406 10.597656 C 21.871094 10.597656 21.804688 10.609375 21.742188 10.632812 L 21.054688 9.996094 C 21.300781 9.8125 21.609375 9.707031 21.941406 9.707031 Z M 23.109375 9.707031 " fill-opacity="1" fill-rule="nonzero"></path><path fill="#ff7135" d="M 21.742188 10.632812 C 21.488281 10.714844 21.308594 10.953125 21.308594 11.234375 L 21.308594 11.847656 L 20.421875 11.847656 L 20.421875 11.234375 C 20.421875 10.726562 20.671875 10.273438 21.054688 9.996094 Z M 21.742188 10.632812 " fill-opacity="1" fill-rule="nonzero"></path></svg>